<svg width="80" height="80" viewBox="0 0 80 80" fill="none" xmlns="http://www.w3.org/2000/svg">
<path d="M22.4393 11.1544L24.4996 9.09419C25.8115 7.78227 27.9385 7.78227 29.2504 9.09419L37.9371 17.7808C39.249 19.0927 39.249 21.2198 37.9371 22.5317L31.9157 28.5531C30.9116 29.5571 30.6627 31.091 31.2977 32.3611C34.9687 39.703 40.922 45.6563 48.2639 49.3273C49.534 49.9623 51.0679 49.7134 52.0719 48.7093L58.0933 42.6879C59.4052 41.376 61.5323 41.376 62.8442 42.6879L71.5308 51.3746C72.8427 52.6865 72.8427 54.8135 71.5308 56.1254L69.4706 58.1856C62.3778 65.2785 51.1488 66.0765 43.1242 60.058L39.0647 57.0134C33.2076 52.6205 28.0045 47.4174 23.6116 41.5603L20.567 37.5008C14.5485 29.4761 15.3465 18.2472 22.4393 11.1544Z" fill="#E7063D"/>
</svg>
