<svg width="80" height="80" viewBox="0 0 80 80" fill="none" xmlns="http://www.w3.org/2000/svg">
<path d="M40 6.66632C52.8865 6.66632 63.3338 17.1128 63.334 29.9993C63.334 48.3568 42.7665 58.6882 40.251 59.8831C40.0903 59.9593 39.9097 59.9594 39.749 59.8831C37.2335 58.6882 16.667 48.3568 16.667 29.9993C16.6672 17.1129 27.1136 6.6665 40 6.66632ZM40 19.9993C34.4774 19.9994 30.0002 24.4767 30 29.9993C30 35.5221 34.4772 39.9992 40 39.9993C45.5228 39.9993 50 35.5222 50 29.9993C49.9998 24.4767 45.5227 19.9993 40 19.9993Z" fill="#E7063D"/>
<path d="M60.2076 55C62.2555 56.5202 63.3337 58.2446 63.3337 60C63.3337 61.7554 62.2555 63.4798 60.2076 65C58.1597 66.5202 55.2141 67.7826 51.667 68.6603C48.1199 69.5379 44.0962 70 40.0003 70C35.9045 70 31.8808 69.5379 28.3337 68.6603C24.7865 67.7826 21.841 66.5202 19.7931 65C17.7451 63.4798 16.667 61.7554 16.667 60C16.667 58.2446 17.7451 56.5202 19.7931 55" stroke="#E7063D" stroke-width="5.625" stroke-linecap="round"/>
</svg>
