<svg width="80" height="80" viewBox="0 0 80 80" fill="none" xmlns="http://www.w3.org/2000/svg">
<path d="M70 59.5837C70 61.3509 70 62.2347 69.4512 62.7839C68.902 63.333 68.0178 63.3337 66.25 63.3337H13.75C11.9822 63.3337 11.098 63.333 10.5488 62.7839C10 62.2347 10 61.3509 10 59.5837V29.5261L38.4824 45.3503C39.4262 45.8745 40.5738 45.8746 41.5176 45.3503L70 29.5261V59.5837ZM66.25 16.6667C68.0178 16.6667 68.902 16.6663 69.4512 17.2155C70.0003 17.7647 70 18.6489 70 20.4167V24.1667C69.5886 24.1663 69.1713 24.2672 68.7861 24.4811L40 40.4733L11.2139 24.4811C10.8287 24.2672 10.4114 24.1663 10 24.1667V20.4167C10 18.6489 9.99965 17.7647 10.5488 17.2155C11.098 16.6663 11.9822 16.6667 13.75 16.6667H66.25Z" fill="#E7063D"/>
</svg>
