<svg width="1512" height="938" viewBox="0 0 1512 938" fill="none" xmlns="http://www.w3.org/2000/svg" xmlns:xlink="http://www.w3.org/1999/xlink">
<rect width="1512" height="932" fill="url(#pattern0_36_1046)"/>
<g clip-path="url(#clip0_36_1046)">
<rect width="1916" height="570" transform="translate(-98)" fill="url(#paint0_linear_36_1046)"/>
<path d="M131.552 -25.688H145.376L160.992 17H147.168L145.504 11.496H131.36L129.632 17H116.192L131.552 -25.688ZM138.336 -12.888L133.92 2.792H143.008L138.336 -12.888ZM165.095 -25.688H177.191V-11.48C180.263 -14.424 182.247 -15.256 185.767 -15.256C193.959 -15.256 199.335 -8.728 199.335 1.512C199.335 11.496 193.959 17.896 185.703 17.896C181.799 17.896 179.623 16.936 176.231 13.544V17H165.095V-25.688ZM182.183 -5.784C178.919 -5.784 177.063 -3.16 177.063 1.448C177.063 6.056 179.047 8.808 182.183 8.808C185.447 8.808 187.111 6.312 187.111 1.512C187.111 -3.16 185.319 -5.784 182.183 -5.784ZM221.048 -15.192C226.168 -15.192 230.968 -13.528 233.976 -10.776C236.984 -8.024 238.584 -3.672 238.584 1.448C238.584 6.504 236.984 10.792 233.976 13.544C230.968 16.36 226.168 17.96 221.048 17.96C210.104 17.96 203.576 11.752 203.576 1.448C203.576 -3.672 205.24 -8.152 208.12 -10.776C211.128 -13.528 215.928 -15.192 221.048 -15.192ZM221.048 -6.744C217.784 -6.744 216.184 -4.056 216.184 1.384C216.184 6.824 217.784 9.512 221.048 9.512C224.376 9.512 226.04 6.824 226.04 1.384C226.04 -4.056 224.376 -6.744 221.048 -6.744ZM265.485 13.352C261.709 17.128 259.661 17.96 255.501 17.96C250.637 17.96 246.797 16.232 244.813 12.968C243.853 11.24 243.149 8.104 243.149 5.288V-13.976H255.245V2.472C255.245 6.248 256.909 8.232 259.789 8.232C262.925 8.232 264.461 6.312 264.461 2.472V-13.976H276.685V17H265.485V13.352ZM281.06 -13.976H285.732V-23.576H297.956V-13.976H304.484V-6.68H298.084V3.24C298.084 6.248 298.084 6.376 298.404 7.016C298.916 8.104 300.196 8.616 302.948 8.616C303.396 8.616 303.908 8.616 304.612 8.552V17L301.732 17.32C299.748 17.512 297.7 17.64 296.164 17.64C288.932 17.64 285.732 15.144 285.732 9V-6.68H281.06V-13.976ZM321.082 -25.688H334.522V17H321.082V-25.688ZM340.079 -25.688H353.519V17H340.079V-25.688ZM384.037 17H370.469V-14.744H358.053V-25.688H396.133V-14.744H384.037V17ZM430.335 12.84C426.943 16.936 423.999 18.216 418.431 18.216C405.439 18.216 397.183 9.512 397.183 -3.992C397.183 -18.008 405.887 -27.096 419.263 -27.096C426.687 -27.096 433.535 -23.896 436.799 -18.776C438.335 -16.472 438.911 -14.68 439.167 -11.16H426.111C425.407 -14.488 423.103 -16.344 419.519 -16.344C414.143 -16.344 411.199 -11.928 411.199 -3.672C411.199 3.816 414.271 7.72 420.095 7.72C423.935 7.72 426.303 6.056 427.263 2.664H421.183V-6.616H439.871V17H430.975L430.335 12.84ZM445.26 -25.688H462.476L469.26 2.472L476.364 -25.688H493.324V17H481.1V-10.264L473.676 17H464.78L457.356 -10.392V17H445.26V-25.688ZM512.069 -25.688V-1.048C512.069 1.192 512.325 2.856 512.773 4.072C513.733 6.312 515.973 7.784 518.725 7.784C521.477 7.784 523.781 6.312 524.613 4.072C525.125 2.856 525.317 1.192 525.317 -1.048V-25.688H538.757V0.552C538.757 6.12 537.285 10.408 534.341 13.352C531.141 16.424 524.997 18.408 518.725 18.408C512.261 18.408 506.245 16.424 502.981 13.352C500.101 10.344 498.629 6.12 498.629 0.552V-25.688H512.069ZM544.192 -25.688H557.632L571.712 -1.368V-25.688H585.152V17H571.84L557.632 -7.32V17H544.192V-25.688ZM602.999 -25.688H638.263V-15.576H616.631V-9.688H634.999V0.104H616.631V6.888H638.839V17H602.999V-25.688ZM666.025 13.608C662.441 17.064 660.713 17.832 656.553 17.832C648.169 17.832 642.857 11.496 642.857 1.576C642.857 -8.6 648.169 -15.192 656.361 -15.192C660.137 -15.192 661.481 -14.552 665.065 -11.48V-25.688H677.161V17H666.025V13.608ZM660.009 -5.912C656.937 -5.912 655.081 -3.224 655.081 1.32C655.081 6.312 656.745 8.808 660.009 8.808C663.337 8.808 665.257 6.056 665.257 1.448C665.257 -3.16 663.337 -5.912 660.009 -5.912ZM682.682 -13.976H694.778V17H682.682V-13.976ZM682.682 -25.688H694.778V-17.432H682.682V-25.688ZM699.215 -13.976H703.887V-23.576H716.111V-13.976H722.639V-6.68H716.239V3.24C716.239 6.248 716.239 6.376 716.559 7.016C717.071 8.104 718.351 8.616 721.103 8.616C721.551 8.616 722.063 8.616 722.767 8.552V17L719.887 17.32C717.903 17.512 715.855 17.64 714.319 17.64C707.087 17.64 703.887 15.144 703.887 9V-6.68H699.215V-13.976ZM727.052 -13.976H739.148V17H727.052V-13.976ZM727.052 -25.688H739.148V-17.432H727.052V-25.688ZM761.505 -15.192C766.625 -15.192 771.425 -13.528 774.433 -10.776C777.441 -8.024 779.041 -3.672 779.041 1.448C779.041 6.504 777.441 10.792 774.433 13.544C771.425 16.36 766.625 17.96 761.505 17.96C750.561 17.96 744.033 11.752 744.033 1.448C744.033 -3.672 745.697 -8.152 748.577 -10.776C751.585 -13.528 756.385 -15.192 761.505 -15.192ZM761.505 -6.744C758.241 -6.744 756.641 -4.056 756.641 1.384C756.641 6.824 758.241 9.512 761.505 9.512C764.833 9.512 766.497 6.824 766.497 1.384C766.497 -4.056 764.833 -6.744 761.505 -6.744ZM783.735 -13.976H794.871V-10.264C797.175 -13.592 800.055 -15 804.727 -15C812.919 -15 817.207 -10.712 817.207 -2.264V17H804.983V0.615999C804.983 -3.16 803.575 -5.08 800.695 -5.08C797.815 -5.08 795.831 -2.776 795.831 0.615999V17H783.735V-13.976ZM848.359 -5.016L834.535 -25.688H850.535L856.295 -14.552L862.247 -25.688H877.799L864.039 -5.208L878.567 17H862.439L856.039 4.84L849.511 17H833.511L848.359 -5.016ZM882.79 -25.688H896.23V17H882.79V-25.688Z" fill="white"/>
</g>
<rect width="1916" height="700" transform="matrix(1 0 0 -1 -283 938)" fill="url(#paint1_linear_36_1046)"/>
<defs>
<linearGradient id="paint0_linear_36_1046" x1="1371.64" y1="-6.96183e-08" x2="1379" y2="590.5" gradientUnits="userSpaceOnUse">
<stop stop-color="#F1F8F3"/>
<stop offset="1" stop-color="white" stop-opacity="0"/>
</linearGradient>
<linearGradient id="paint1_linear_36_1046" x1="1371.64" y1="-8.54962e-08" x2="1382.74" y2="725.118" gradientUnits="userSpaceOnUse">
<stop stop-color="#F1F8F3"/>
<stop offset="1" stop-color="white" stop-opacity="0"/>
</linearGradient>
<clipPath id="clip0_36_1046">
<rect width="1916" height="570" fill="white" transform="translate(-98)"/>
</clipPath>
<pattern id="pattern0_36_1046" patternUnits="userSpaceOnUse" patternTransform="matrix(11 0 0 22 750.5 460.5)" preserveAspectRatio="none" viewBox="0 0 11 22" width="1" height="1">
<use xlink:href="#pattern0_36_1046_inner" transform="translate(-11 0)"/>
<g id="pattern0_36_1046_inner">
<circle cx="5.5" cy="5.5" r="5.5" fill="#F06285"/>
</g>
<use xlink:href="#pattern0_36_1046_inner" transform="translate(-5.5 11)"/>
<use xlink:href="#pattern0_36_1046_inner" transform="translate(5.5 11)"/>
</pattern></defs>
</svg>
