<svg width="343" height="280" viewBox="0 0 343 280" fill="none" xmlns="http://www.w3.org/2000/svg">
<path d="M194.636 52.7062C194.449 52.4186 194.222 52.1595 193.96 51.9369L188.599 48.3935L187.526 47.7874C187.526 47.158 188.016 47.1347 188.389 47.0182C190.369 46.3872 192.458 46.1672 194.526 46.3716C196.594 46.5761 198.599 47.2006 200.418 48.2071C203.026 49.6684 205.386 51.5331 207.411 53.7319C211.513 58.0407 215.032 62.8685 217.878 68.092C221.293 74.1315 223.576 80.7439 224.615 87.6039C225.307 92.2872 225.486 97.0318 225.151 101.754C225.151 103.199 224.709 104.621 224.545 106.043C224.382 107.465 224.359 108.375 224.312 109.68C224.356 110.031 224.442 110.375 224.569 110.706H224.872C225.023 110.47 225.134 110.21 225.198 109.936C226.094 105.173 226.493 100.329 226.387 95.4832C226.025 80.9566 220.553 67.0228 210.931 56.133C208.849 53.7467 206.546 51.5613 204.054 49.6058C203.897 49.4843 203.756 49.3433 203.635 49.1862C203.635 49.1862 203.635 49.0463 203.635 48.8831C203.877 48.8041 204.127 48.7494 204.381 48.7199C207.883 48.6453 211.322 49.6638 214.218 51.6339C217.072 53.6883 219.509 56.2674 221.398 59.2335C225.445 65.1512 228.405 71.7426 230.14 78.6988C231.822 85.0942 232.606 91.6924 232.471 98.304C232.363 103.711 231.58 109.083 230.14 114.296C230.115 114.536 230.115 114.778 230.14 115.018C230.84 115.018 231.073 114.506 231.236 114.063C231.635 113.088 231.954 112.082 232.192 111.055C234.765 98.6378 233.96 85.7573 229.86 73.7567C228.257 68.8116 226.082 64.0705 223.38 59.6298C222.447 58.1378 221.375 56.7158 220.396 55.2705C220.219 55.0069 220.056 54.7346 219.906 54.4546L220.093 54.2215L221.165 54.5245C225.915 56.133 229.955 59.3483 232.588 63.6161C234.963 67.3053 236.712 71.3618 237.763 75.6216C239.075 80.3775 239.856 85.2638 240.094 90.1915C240.268 96.3705 239.736 102.549 238.509 108.608C237.903 111.918 237.157 115.205 236.481 118.492C236.481 119.005 236.271 119.518 236.178 120.03H236.481C236.721 119.655 236.939 119.266 237.134 118.865C238.752 114.714 239.879 110.387 240.491 105.974C241.291 100.471 241.509 94.9002 241.143 89.3522C240.821 83.5366 239.788 77.7824 238.066 72.2181C237.372 69.8881 236.435 67.6378 235.269 65.5044C235.177 65.2702 235.107 65.0284 235.059 64.7817C235.383 64.8433 235.703 64.929 236.015 65.0381C239.549 66.7009 242.417 69.5109 244.151 73.0107C246.027 76.6351 247.161 80.598 247.484 84.6666C248.314 93.37 247.611 102.151 245.409 110.613C244.29 114.995 242.845 119.308 241.563 123.644C241.33 124.436 241.073 125.206 240.864 125.975C240.864 126.325 240.864 126.698 240.7 127.164C241.376 127.001 241.47 126.534 241.633 126.185C243.4 122.564 244.828 118.786 245.899 114.902C248.234 106.564 249.249 97.9112 248.906 89.259C248.806 86.1265 248.448 83.0077 247.834 79.9343C247.813 79.7796 247.813 79.6228 247.834 79.4681C247.898 79.1898 247.984 78.917 248.09 78.6522C248.401 78.726 248.699 78.8438 248.976 79.0018C249.233 79.295 249.446 79.625 249.605 79.9809C252.752 85.2632 254.366 91.317 254.268 97.4647C254.461 106.124 252.94 114.736 249.792 122.805C248.72 125.532 247.298 128.12 246.085 130.777C245.479 132.106 244.99 133.458 244.477 134.81C244.4 135.084 244.353 135.365 244.337 135.649C244.966 135.649 245.106 135.16 245.293 134.81C249.394 127.825 252.405 120.255 254.221 112.361C255.438 107.183 256.218 101.911 256.552 96.6022C256.604 96.3487 256.674 96.0993 256.762 95.8562C257.368 96.0194 257.368 96.5089 257.508 96.8819C259.344 101.773 259.96 107.038 259.303 112.221C258.588 118.046 257.017 123.733 254.641 129.099C252.628 133.808 250.291 138.373 247.647 142.759C247.274 143.342 246.995 143.948 246.552 144.788C249.019 142.392 251.061 139.593 252.589 136.512C254.245 133.551 255.76 130.497 257.252 127.444C258.6 124.386 259.661 121.21 260.422 117.956H260.748C260.835 118.237 260.897 118.526 260.935 118.818C261.782 126.566 260.228 134.386 256.482 141.221C254.105 145.502 251.259 149.505 247.997 153.156C247.554 153.646 246.948 154.066 246.948 154.951C247.274 154.742 247.624 154.532 247.95 154.275C249.714 152.795 251.33 151.148 252.776 149.357C254.291 147.632 255.853 145.93 257.438 144.228C257.764 143.912 258.114 143.624 258.487 143.365C258.512 143.668 258.512 143.972 258.487 144.275C257.028 149.71 254.147 154.659 250.142 158.611C247.81 160.943 245.479 162.901 243.148 165.069L242.192 165.978C242.752 166.328 243.055 165.978 243.381 165.978C245.872 164.677 248.216 163.114 250.375 161.316C251.82 160.173 253.219 158.984 254.664 157.842C254.961 157.619 255.272 157.417 255.597 157.236C255.58 157.566 255.534 157.894 255.457 158.215C254.34 161.232 252.588 163.973 250.32 166.253C248.051 168.534 245.319 170.3 242.309 171.433L239.605 172.598C239.805 172.761 240.047 172.862 240.303 172.891C240.56 172.92 240.819 172.875 241.05 172.762C242.892 172.132 244.757 171.526 246.552 170.803C247.601 170.384 248.58 169.778 249.582 169.265L250.212 169.008C250.585 169.451 250.212 169.754 250.072 169.987C249.136 171.128 248.132 172.21 247.065 173.228C244.566 175.422 241.6 177.016 238.392 177.89C237.628 178.098 236.849 178.246 236.061 178.333C234.844 178.539 233.595 178.254 232.588 177.54L229.674 175.582C228.377 174.69 226.862 174.166 225.291 174.067C225.044 174.005 224.785 174.004 224.537 174.065C224.289 174.126 224.06 174.247 223.869 174.417C224.219 174.906 224.732 174.86 225.151 174.93C227.789 175.382 230.255 176.542 232.285 178.286C232.733 178.668 233.153 179.081 233.544 179.522C234.406 180.524 234.36 180.664 233.124 181.13C232.915 181.24 232.72 181.373 232.541 181.527L233.893 181.9C234.779 182.156 235.712 182.343 236.597 182.669C237.483 182.995 237.46 183.229 237.343 184.044C237.11 185.42 236.831 186.795 236.597 188.194C236.576 188.512 236.576 188.831 236.597 189.15C237.157 189.476 237.46 189.15 237.74 188.917L243.125 184.254C243.451 183.975 243.731 183.671 244.011 183.415C244.547 183.671 244.384 183.975 244.29 184.278C243.745 185.872 242.835 187.317 241.633 188.497C240.677 189.429 239.675 190.292 238.696 191.178L237.763 192.064C238.012 192.124 238.273 192.117 238.519 192.044C238.765 191.97 238.987 191.832 239.162 191.644L242.356 189.08L243.661 188.077C243.726 188.01 243.804 187.957 243.89 187.921C243.976 187.884 244.069 187.866 244.162 187.866C244.256 187.866 244.348 187.884 244.434 187.921C244.52 187.957 244.598 188.01 244.663 188.077C244.686 188.248 244.686 188.42 244.663 188.59C243.543 191.01 241.648 192.987 239.278 194.208C238.774 194.494 238.283 194.806 237.81 195.141C238.154 195.251 238.52 195.272 238.875 195.203C239.229 195.134 239.56 194.976 239.838 194.745C240.374 194.488 240.887 194.162 241.4 193.859L241.633 194.022C241.212 194.964 240.628 195.824 239.908 196.563C238.91 197.254 237.858 197.862 236.761 198.381C236.47 198.477 236.222 198.671 236.06 198.931C235.898 199.191 235.832 199.5 235.875 199.803C235.991 201.332 235.728 202.865 235.11 204.268C234.492 205.671 233.538 206.9 232.332 207.846C232.121 208.075 231.844 208.234 231.54 208.301C231.235 208.368 230.917 208.339 230.63 208.219L226.573 206.68C225.478 206.261 224.382 205.841 223.263 205.515C221.771 205.095 221.282 205.515 220.932 206.937C220.884 207.097 220.822 207.253 220.746 207.403C219.37 206.564 219.254 205.072 218.694 203.673C218.02 204.835 217.788 206.2 218.041 207.519C217.855 207.519 217.715 207.519 217.645 207.519C216.989 206.85 216.484 206.048 216.162 205.168C215.841 204.287 215.71 203.349 215.78 202.414C215.784 201.999 215.926 201.598 216.183 201.273C216.441 200.948 216.799 200.718 217.202 200.619C219.054 200.095 221.015 200.095 222.867 200.619L223.986 200.922C224.297 198.457 224.819 196.024 225.548 193.649C225.666 193.365 225.727 193.059 225.727 192.751C225.727 192.443 225.666 192.138 225.548 191.854L224.405 192.017C220.827 192.76 217.112 192.485 213.682 191.224C211.644 190.505 209.828 189.268 208.414 187.634C208.176 187.315 207.894 187.033 207.574 186.795C207.562 187.08 207.609 187.364 207.713 187.629C207.818 187.894 207.977 188.134 208.18 188.334C209.994 190.478 212.444 191.988 215.174 192.646L216.34 192.973V193.253C216.096 193.383 215.838 193.485 215.57 193.556C213.329 194.074 210.994 194.026 208.775 193.415C206.557 192.805 204.526 191.651 202.865 190.059C201.214 188.615 199.75 186.97 198.506 185.163C198.34 184.851 198.091 184.59 197.787 184.409C197.483 184.229 197.135 184.135 196.781 184.138C196.152 184.138 196.012 183.765 196.035 183.205C196.082 182.584 196.082 181.961 196.035 181.34C195.994 180.571 195.729 179.831 195.274 179.21C194.818 178.589 194.192 178.114 193.471 177.844C192.655 177.54 192.562 177.377 192.795 176.538C193.028 175.699 193.331 174.813 193.634 173.974C193.937 173.135 193.914 172.645 193.098 172.086C192.669 171.819 192.216 171.592 191.746 171.409C190.976 171.06 190.883 170.85 191.326 170.174C191.769 169.498 192.702 168.192 193.424 167.213C194.147 166.234 194.054 166.188 193.424 165.418C193.098 165.092 192.725 164.812 192.375 164.486C191.536 163.717 191.559 163.553 192.375 162.761C193.191 161.968 194.124 161.316 194.939 160.43C195.755 159.544 195.825 159.287 195.173 158.332C194.217 156.91 194.24 156.653 195.802 156C197.799 155.068 199.531 153.649 200.837 151.874C201.205 151.468 201.547 151.04 201.863 150.592C202.353 149.939 202.329 149.66 201.653 149.147C200.977 148.634 200.814 148.587 200.394 148.308C200.202 148.204 200.057 148.028 199.992 147.819C199.926 147.61 199.945 147.384 200.045 147.189C200.278 146.489 200.418 145.72 200.651 144.857C201.381 144.852 202.105 145.003 202.772 145.3C203.262 145.44 203.705 145.673 204.194 145.86C204.298 145.917 204.413 145.949 204.531 145.955C204.649 145.96 204.766 145.939 204.875 145.891C204.983 145.844 205.079 145.772 205.155 145.682C205.231 145.592 205.285 145.485 205.313 145.37C205.378 145.187 205.433 145 205.476 144.811C205.733 143.692 205.476 143.389 204.357 143.342C203.767 143.307 203.176 143.307 202.586 143.342C202.214 143.378 201.841 143.286 201.528 143.083C201.215 142.88 200.98 142.577 200.861 142.223C200.485 141.624 200.298 140.925 200.324 140.218C200.791 140.638 201.117 140.894 201.397 141.174C201.761 141.558 202.21 141.85 202.708 142.028C203.206 142.206 203.739 142.265 204.264 142.2C205.197 142.2 205.523 141.687 205.336 140.778C205.174 139.928 204.779 139.139 204.194 138.501C203.61 137.863 202.859 137.4 202.026 137.165C201.236 136.861 200.386 136.747 199.544 136.832C198.701 136.917 197.891 137.199 197.177 137.654C197.005 137.734 196.826 137.796 196.641 137.841C196.641 137.677 196.478 137.561 196.501 137.468C196.658 135.431 197.229 133.448 198.18 131.64C198.561 130.778 199.25 130.089 200.113 129.71C200.976 129.33 201.949 129.287 202.842 129.588C204.759 130.069 206.585 130.856 208.25 131.919C211.016 133.455 213.624 135.259 216.037 137.304C217.156 138.237 218.368 139.076 219.51 139.892C220.322 140.48 221.244 140.897 222.222 141.118C223.2 141.338 224.213 141.357 225.198 141.174C225.477 141.15 225.758 141.15 226.037 141.174C225.871 142.242 225.473 143.26 224.872 144.158C224.559 144.452 224.157 144.633 223.729 144.671C222.844 144.671 221.958 144.811 221.049 144.904C220.722 144.904 220.326 144.904 220.163 145.347C220.582 145.767 221.095 145.58 221.585 145.58C222.844 145.58 223.053 145.697 223.426 146.886C223.975 148.575 223.975 150.395 223.426 152.084C223.077 153.133 222.634 154.136 222.214 155.138C221.362 156.945 220.826 158.885 220.629 160.873C220.536 161.456 220.404 162.032 220.233 162.598C220.699 162.131 221.072 161.828 221.375 161.455C224.279 157.939 226.223 153.731 227.016 149.24C228.054 143.448 226.979 137.475 223.986 132.409C222.582 129.789 220.231 127.804 217.412 126.861C216.658 126.625 215.858 126.577 215.081 126.721C213.715 127.035 212.295 127.026 210.933 126.696C209.571 126.365 208.305 125.722 207.235 124.817C206.165 123.912 205.32 122.77 204.768 121.482C204.216 120.194 203.972 118.795 204.054 117.396C204.063 115.785 204.426 114.195 205.12 112.741C205.813 111.286 206.818 110.002 208.064 108.981C208.341 108.773 208.569 108.507 208.73 108.2C208.891 107.894 208.982 107.555 208.996 107.209C209.615 101.605 209.474 95.9438 208.577 90.378C207.363 82.8088 204.296 75.6573 199.648 69.5606C194.461 63.0164 187.967 57.6255 180.579 53.7319C178.481 52.5663 176.313 51.5873 174.192 50.5149L173.213 49.9321C173.551 49.7308 173.901 49.5517 174.262 49.396C176.971 48.3473 179.88 47.9181 182.776 48.14C185.672 48.3618 188.482 49.2291 191 50.6781L194.706 52.6829C195.359 53.289 196.012 53.9184 196.688 54.5012C199.391 56.7533 201.887 59.242 204.148 61.9377C211.615 70.682 216.284 81.4669 217.552 92.8956C218.033 97.2919 218.166 101.719 217.948 106.137C217.948 106.44 217.762 106.836 218.274 107.092C218.479 106.923 218.647 106.714 218.767 106.477C218.888 106.241 218.958 105.982 218.974 105.717C219.114 104.039 219.277 102.36 219.347 100.682C219.728 92.5269 218.237 84.3931 214.988 76.9038C210.999 67.8938 204.801 60.0361 196.968 54.0583C196.226 53.5486 195.447 53.0966 194.636 52.7062V52.7062ZM229.371 143.622H229.557C229.581 143.374 229.581 143.124 229.557 142.876C229.324 141.477 229.091 140.102 228.765 138.726C228.046 135.674 226.681 132.811 224.763 130.33C222.845 127.849 220.418 125.808 217.645 124.343C217.334 124.154 216.987 124.031 216.625 123.983C216.264 123.935 215.897 123.962 215.547 124.063C214.162 124.46 212.692 124.452 211.312 124.039C209.932 123.625 208.7 122.825 207.761 121.732C206.766 120.649 206.139 119.279 205.967 117.819C205.796 116.358 206.089 114.881 206.805 113.596C207.225 112.897 207.714 112.221 208.134 111.522C208.251 111.237 208.337 110.94 208.39 110.636C208.115 110.727 207.855 110.86 207.621 111.032C207.078 111.646 206.594 112.309 206.176 113.014C205.425 114.633 205.143 116.431 205.361 118.202C205.58 119.974 206.29 121.649 207.411 123.038C208.128 124.032 209.179 124.736 210.372 125.019C212.09 125.414 213.876 125.414 215.594 125.019C216.056 124.832 216.564 124.785 217.053 124.885C217.542 124.984 217.992 125.225 218.344 125.579L218.927 125.975C223.373 128.972 226.623 133.436 228.112 138.587C228.578 140.265 228.951 141.943 229.371 143.599V143.622ZM229.581 145.953H229.231V147.328H229.557L229.581 145.953ZM222.89 201.901V201.645H221.795V201.831L222.89 201.901Z" fill="#68031B"/>
<path d="M277.155 250.815C277.233 251.106 277.216 251.414 277.107 251.694C276.998 251.975 276.803 252.214 276.549 252.376C275.477 253.472 274.405 254.568 273.239 255.547C269.447 258.812 265.284 261.621 260.837 263.916C254.269 267.284 246.924 268.845 239.554 268.438C237.595 268.438 235.637 268.252 233.726 267.972C231.52 267.654 229.334 267.218 227.175 266.667C223.613 265.784 220.169 264.477 216.918 262.774C212.043 260.249 207.367 257.358 202.931 254.125C199.643 251.608 196.086 249.466 192.324 247.737C188.783 246.09 184.785 245.703 180.995 246.642C180.721 246.758 180.463 246.906 180.225 247.085C180.761 247.388 181.134 247.644 181.531 247.854C184.794 249.626 188.105 251.281 191.298 253.146C193.443 254.405 195.471 255.897 197.499 257.365C201.486 260.302 205.472 263.263 209.388 266.294C211.393 267.855 213.211 269.65 215.123 271.329L215.519 271.749C216.778 273.101 216.848 273.427 215.659 274.802C214.507 276.133 213.269 277.387 211.953 278.556C210.74 279.628 210.134 279.558 208.852 278.556C208.254 278.112 207.685 277.629 207.15 277.11C204.656 274.779 202.138 272.308 199.691 269.814C195.849 265.973 191.744 262.405 187.405 259.137C185.074 257.272 182.51 255.384 179.992 253.612C177.892 252.06 175.52 250.913 172.999 250.232C172.051 250.019 171.079 249.932 170.108 249.975C169.612 250.051 169.141 250.243 168.733 250.535C167.427 251.281 166.145 252.003 164.886 252.866C163.627 253.729 162.112 254.591 160.783 255.547C157.986 257.528 155.095 259.44 152.484 261.655C146.566 266.521 141.061 271.87 136.026 277.646C135.49 278.276 134.954 278.882 134.371 279.465C133.788 280.047 133.299 280.187 132.576 279.721C130.537 278.38 128.652 276.816 126.958 275.059C126.329 274.429 126.329 274.033 126.958 273.334C127.587 272.634 128.87 271.259 129.919 270.303C135.771 264.926 142.003 259.979 148.568 255.5C152.424 252.988 156.416 250.692 160.527 248.623C161.267 248.257 161.983 247.844 162.672 247.388C163.184 247.038 163.138 246.595 162.672 246.362C162.323 246.19 161.941 246.095 161.553 246.082C160.189 246.066 158.826 246.144 157.473 246.315C152.153 247.317 147.127 249.499 142.763 252.703C138.101 255.827 133.439 258.88 128.776 261.841C125.248 264.019 121.487 265.794 117.563 267.133C115.596 267.772 113.587 268.271 111.549 268.625C109.824 268.998 108.076 269.161 106.351 269.534C104.626 269.891 102.855 269.97 101.105 269.767C97.5247 269.502 93.9704 268.957 90.4752 268.135C87.9862 267.457 85.5726 266.528 83.2719 265.361C79.9294 263.778 76.7448 261.881 73.7607 259.696C71.27 257.869 68.9873 255.774 66.9537 253.449C66.8165 253.23 66.729 252.983 66.6973 252.726C66.9537 252.726 67.2801 252.493 67.5132 252.563C68.178 252.795 68.8247 253.075 69.448 253.402C72.3629 254.909 75.4354 256.09 78.6095 256.922C83.8624 258.345 89.3443 258.717 94.7413 258.018C97.6481 257.636 100.529 257.076 103.367 256.339C106.558 255.448 109.676 254.31 112.691 252.936C115.559 251.654 118.496 250.465 121.41 249.276C123.182 248.553 124.953 247.831 126.748 247.178C129.872 246.082 133.019 245.033 136.073 244.008C137.658 243.495 139.29 243.098 140.922 242.679C143.748 242.054 146.63 241.718 149.524 241.676C152.904 241.56 156.307 241.56 159.711 241.676C162.334 241.659 164.944 242.044 167.451 242.819C167.711 242.89 167.968 242.976 168.22 243.075C169.177 243.531 170.218 243.783 171.277 243.815C172.337 243.847 173.391 243.659 174.374 243.262C177.231 242.323 180.189 241.729 183.186 241.49C185.75 241.257 188.314 240.954 190.902 240.977C193.865 241.012 196.823 241.222 199.761 241.606C201.925 241.926 204.066 242.385 206.171 242.982C208.129 243.495 210.088 244.031 211.999 244.684C214.54 245.569 217.058 246.572 219.552 247.574C222.046 248.577 224.214 249.509 226.686 250.535C229.157 251.561 231.092 252.516 233.329 253.425C236.137 254.483 239.042 255.264 242.001 255.757C246.198 256.458 250.453 256.755 254.706 256.643C258.113 256.651 261.511 256.307 264.847 255.617C267.462 254.964 269.99 254.001 272.377 252.749L276.27 250.861C276.563 250.82 276.859 250.805 277.155 250.815V250.815Z" fill="#68031B"/>
<path d="M273.078 221.891C273.387 221.684 273.683 221.458 273.964 221.215C278.882 216.8 284.305 212.981 290.119 209.839C295.038 207.111 300.096 204.663 305.062 202.006C307.906 200.491 310.82 198.999 313.501 197.204C315.868 195.55 318.111 193.727 320.215 191.749C322.655 189.658 324.867 187.313 326.812 184.755C327.931 183.193 328.84 181.492 329.842 179.883C330.075 179.487 330.332 179.137 330.612 178.694C330.783 178.834 330.903 179.026 330.953 179.241C331.004 179.456 330.982 179.682 330.891 179.883C328.102 192.513 321.178 203.851 311.216 212.1C306.882 215.755 302.259 219.053 297.392 221.961C295.045 223.362 292.551 224.503 289.956 225.364C287.671 226.141 285.34 226.864 282.962 227.532C279.823 228.334 276.64 228.949 273.428 229.374C270.584 229.84 267.763 230.423 264.919 230.982C263.997 231.142 263.086 231.36 262.192 231.635C260.816 232.031 259.441 232.498 258.066 232.917C257.313 233.192 256.487 233.192 255.734 232.917C255.571 232.311 256.014 232.031 256.294 231.705C257.902 229.887 259.557 228.115 261.073 226.227C263.149 223.527 264.901 220.593 266.295 217.485C267.32 215.317 268.299 213.102 269.185 210.841C270.071 208.58 270.747 206.179 271.516 203.987C272.938 199.954 274.36 195.898 275.876 191.865C276.668 189.627 277.579 187.433 278.603 185.291C281.096 180.197 284.079 175.356 287.508 170.838C288.464 169.556 289.35 168.227 290.282 166.922C290.609 166.433 290.975 165.973 291.378 165.546C291.503 165.413 291.655 165.306 291.824 165.234C291.992 165.162 292.174 165.125 292.357 165.127C292.87 165.127 292.777 165.803 292.73 166.222C292.701 166.493 292.639 166.76 292.544 167.015C291.147 170.788 290.139 174.693 289.536 178.671C288.635 183.862 287.741 189.06 286.855 194.266C285.34 203.09 281.493 211.347 275.713 218.184C275.036 219 274.267 219.723 273.568 220.515C273.283 220.865 273.018 221.231 272.775 221.611L273.078 221.891Z" fill="#68031B"/>
<path d="M87.3028 233.62C86.8505 233.714 86.3895 233.761 85.9274 233.76C84.0392 233.457 82.1509 233.177 80.286 232.781C76.5095 232.011 72.7563 231.056 68.9332 230.45C64.4812 229.856 60.0734 228.968 55.7387 227.792C52.3349 226.781 49.0272 225.47 45.8546 223.876C36.0293 218.86 27.53 211.59 21.0509 202.662C18.0889 198.578 15.6385 194.147 13.7544 189.468C12.8225 187.275 12.1421 184.983 11.7263 182.637C11.6782 182.266 11.7518 181.89 11.9361 181.565C12.1336 181.758 12.3131 181.969 12.4722 182.194C13.5445 183.826 14.5469 185.505 15.6892 187.09C18.8639 191.424 22.8163 195.132 27.3451 198.023C31.9591 201.027 36.7813 203.7 41.775 206.019C44.8056 207.464 47.8594 208.863 50.7967 210.448C53.1278 211.66 55.1093 213.129 57.2307 214.504C59.3521 215.88 61.1471 217.092 63.0586 218.421C64.9702 219.749 67.3014 221.521 69.4228 223.083C69.8191 223.363 70.2852 223.596 70.8214 223.922C70.8251 223.719 70.7805 223.518 70.6914 223.336C70.6022 223.154 70.471 222.995 70.3086 222.873C69.5908 222.118 68.811 221.424 67.9774 220.798C65.6238 219.026 63.6699 216.779 62.2427 214.201C61.1556 212.407 60.1673 210.555 59.2822 208.653C58.3881 206.529 57.6099 204.358 56.951 202.149C56.3449 200.238 55.8787 198.256 55.4357 196.275C55.1094 194.829 54.8995 193.361 54.6664 191.892C54.3167 189.561 54.037 187.23 53.6407 185.062C53.1278 182.218 52.615 179.374 51.939 176.553C51.4261 174.362 50.6568 172.217 50.0274 170.049C49.8295 169.37 49.6892 168.676 49.6078 167.974C49.6078 167.741 49.7943 167.438 49.8875 167.182C50.1906 167.182 50.4936 167.391 50.7967 167.531C51.0997 167.671 50.7967 167.531 50.7967 167.531C53.2444 170.841 55.7388 174.175 58.1865 177.509C60.6599 181.027 62.7762 184.783 64.504 188.722C66.5323 193.155 68.3068 197.7 69.819 202.336C71.0079 205.902 72.1502 209.469 73.5955 212.919C75.0173 216.173 76.6286 219.341 78.4211 222.407C79.91 224.818 81.5206 227.153 83.2466 229.4C84.1622 230.728 85.3162 231.874 86.6501 232.781C86.9071 233.027 87.127 233.31 87.3028 233.62V233.62Z" fill="#68031B"/>
<path d="M304.289 185.449C304.965 184.563 305.711 183.724 306.34 182.791C308.368 179.877 310.257 176.847 312.401 174.026C314.546 171.205 316.411 169.154 318.556 166.799C322.449 162.487 326.435 158.244 330.398 153.978C332.714 151.535 334.776 148.864 336.552 146.005C337.639 144.068 338.574 142.049 339.35 139.968C340.161 138.099 340.642 136.103 340.772 134.07C340.765 133.834 340.821 133.601 340.935 133.394C341.112 133.163 341.356 132.992 341.634 132.904C341.634 132.904 342.054 133.231 342.077 133.464C342.336 134.92 342.492 136.392 342.543 137.87C342.466 141.897 342.013 145.909 341.191 149.852C339.716 157.434 336.588 164.597 332.03 170.832C328.627 175.514 324.718 179.806 320.374 183.631C317.724 185.998 314.895 188.157 311.912 190.088C307.459 193.002 303.123 196.056 298.694 198.97C295.687 200.951 292.61 202.793 289.556 204.704C289.222 204.885 288.88 205.048 288.53 205.194C288.472 204.862 288.472 204.523 288.53 204.192C288.887 203.323 289.292 202.474 289.742 201.651C290.79 199.737 291.574 197.69 292.074 195.566C292.703 193.235 293.309 190.904 293.799 188.573C294.381 185.705 294.871 182.815 295.337 179.924C296.153 174.982 296.083 169.947 296.619 164.981C296.922 162.417 297.132 159.853 297.435 157.288C297.785 154.258 298.228 151.251 298.577 148.22C298.899 145.659 299.445 143.132 300.209 140.667C300.769 138.756 301.188 136.821 301.748 134.909C302.191 133.44 302.75 132.042 303.286 130.62C303.458 130.275 303.66 129.947 303.892 129.641C304.499 129.92 304.429 130.387 304.452 130.783C304.452 132.415 304.569 134.07 304.708 135.702C304.895 138.033 305.058 140.364 305.431 142.695C306.224 147.544 307.179 152.37 307.995 157.218C309.013 162.615 308.966 168.158 307.855 173.537C307.372 176.225 306.638 178.863 305.664 181.416C305.151 182.628 304.569 183.747 304.032 185.029L303.892 185.449H304.289Z" fill="#68031B"/>
<path d="M1.03081 135.674C1.26393 136.489 1.49704 137.119 1.6136 137.748C2.54404 142.397 4.50359 146.778 7.34834 150.57C7.90782 151.409 8.39737 152.295 9.02678 153.087C9.6562 153.88 10.612 155.046 11.358 155.955C16.4632 161.386 21.6384 166.771 26.697 172.273C30.3124 176.17 33.5081 180.436 36.2315 185.001C36.7472 185.809 37.3076 186.587 37.91 187.332C37.91 187.496 38.2596 187.565 38.4228 187.682C38.7725 187.216 38.4229 186.959 38.3063 186.656C37.5137 185.141 36.6745 183.626 35.9751 181.994C34.9117 179.472 34.3116 176.779 34.2034 174.045C33.7955 168.271 33.7955 162.475 34.2034 156.701C34.3135 155.294 34.5397 153.898 34.8795 152.528C36.2978 146.718 37.2873 140.812 37.84 134.858C38.0032 134.578 38.0964 134.135 38.3296 134.042C38.5627 133.948 39.0289 134.298 39.1688 134.671C39.6842 135.722 40.113 136.814 40.4509 137.935C41.3135 141.362 42.1993 144.812 42.7821 148.309C43.3649 151.805 43.8778 155.162 44.344 158.612C44.717 161.247 45.0201 163.881 45.2998 166.515C45.6262 169.709 45.8593 172.902 46.1857 176.096C46.512 179.29 46.885 181.924 47.2813 184.815C47.5144 186.563 47.8175 188.288 48.1438 190.013C48.7731 193.956 49.9665 197.787 51.6872 201.389C52.4798 202.951 53.1558 204.56 53.8785 206.168C53.8785 206.168 53.8785 206.308 53.8785 206.378C53.8785 206.448 53.8785 207.054 53.8785 207.38C53.5844 207.417 53.2868 207.417 52.9927 207.38C52.4565 207.101 51.9203 206.728 51.4075 206.401C48.8898 204.746 46.4654 202.951 43.8778 201.436C38.7259 198.452 33.9936 194.839 29.1215 191.482C27.9559 190.689 26.7903 189.897 25.6713 189.151C19.2546 184.53 13.6597 178.864 9.11998 172.39C6.91103 169.067 5.02951 165.538 3.50185 161.853C1.48541 156.885 0.387541 151.593 0.261554 146.234C0.261554 143.436 0.0983804 140.616 0.0517569 137.795C-0.0467719 137.383 -0.00382692 136.949 0.173765 136.565C0.351357 136.18 0.65323 135.866 1.03081 135.674V135.674Z" fill="#68031B"/>
<path d="M269.304 201.069C269.071 201.511 268.885 201.954 268.628 202.374C267.509 204.356 266.297 206.267 265.271 208.295C264.059 210.626 262.94 213.167 261.915 215.638C260.198 219.409 258.113 223.001 255.69 226.362C255.294 226.945 254.828 227.481 254.455 228.064C252.678 230.7 250.275 232.854 247.461 234.334C244.839 235.974 242.039 237.311 239.116 238.321C239.116 238.321 238.883 238.484 238.719 238.577C239.022 239.113 239.489 238.997 239.862 238.95C241.074 238.95 242.193 238.74 243.475 238.6C249.256 237.901 255.131 237.155 260.796 236.479C265.225 235.943 269.677 235.57 274.083 235.034C278.833 234.595 283.522 233.649 288.07 232.213C293.351 230.547 298.15 227.627 302.057 223.704C302.718 223.04 303.419 222.418 304.155 221.839C304.452 221.631 304.764 221.444 305.088 221.28L305.344 221.443C305.256 221.794 305.139 222.137 304.995 222.469C302.894 226.493 300.181 230.165 296.952 233.355C293.535 236.793 289.715 239.807 285.576 242.33C282.617 244.116 279.495 245.615 276.251 246.806C273.492 247.891 270.624 248.673 267.696 249.137C264.489 249.65 261.246 249.907 257.998 249.907C254.09 249.877 250.191 249.518 246.342 248.834C241.354 247.925 236.388 246.946 231.399 245.92C228.625 245.337 225.875 244.592 223.101 243.915C219.931 243.07 216.694 242.501 213.426 242.214C212.917 242.185 212.414 242.083 211.934 241.911C211.822 241.85 211.725 241.763 211.652 241.658C211.579 241.552 211.532 241.431 211.515 241.305C211.515 241.118 211.818 240.838 212.027 240.792C212.697 240.586 213.384 240.438 214.079 240.349C216.517 239.986 218.909 239.361 221.212 238.484C224.618 237.222 227.853 235.538 230.84 233.472C235.401 230.311 239.654 226.729 243.545 222.772C248.207 218.249 252.87 213.797 257.672 209.577C260.003 207.573 262.334 205.521 264.665 203.586C265.836 202.671 267.058 201.823 268.325 201.045C268.613 200.898 268.919 200.789 269.234 200.719L269.304 201.069Z" fill="#68031B"/>
<path d="M104.371 240.032C104.331 239.754 104.199 239.498 103.996 239.304C103.793 239.109 103.531 238.988 103.252 238.96C95.9935 237.009 89.7959 232.277 86.0012 225.789C82.9241 220.847 80.4064 215.578 77.6323 210.473C76.5367 208.468 75.3012 206.51 74.1123 204.529L73.2963 203.107C73.0865 202.757 72.8767 202.337 73.2963 202.081C73.4453 202.009 73.6087 201.971 73.7743 201.971C73.9398 201.971 74.1032 202.009 74.2521 202.081C75.4176 202.789 76.5387 203.567 77.609 204.412C81.3389 207.536 85.1154 210.636 88.7287 213.923C94.0438 218.772 99.219 223.761 104.464 228.68C106.731 231 109.322 232.978 112.157 234.554C114.255 235.603 116.4 236.536 118.568 237.421C120.736 238.307 122.554 238.983 124.582 239.753C126.61 240.522 128.545 240.941 130.527 241.524C130.791 241.632 131.048 241.756 131.296 241.897C130.863 242.094 130.42 242.265 129.967 242.41C128.522 242.736 127.053 243.016 125.608 243.366L115.491 245.837L106.049 248.168C105.793 248.168 105.513 248.285 105.257 248.378C100.803 249.584 96.2443 250.365 91.6427 250.709C90.4771 250.826 89.3115 250.872 88.146 250.942C83.9302 251.226 79.6965 251.078 75.511 250.499C71.6297 250.005 67.8385 248.961 64.2514 247.399C57.9444 244.639 52.1691 240.797 47.1872 236.046C43.8783 232.888 40.9236 229.378 38.3754 225.579C38.0491 225.113 37.4895 224.67 37.746 223.877C38.3754 223.877 38.7717 224.18 39.1913 224.507C40.287 225.323 41.3593 226.162 42.4083 227.048C45.3623 229.427 48.6645 231.337 52.1993 232.712C56.1016 234.319 60.2024 235.393 64.3913 235.906C68.6574 236.419 72.9234 236.769 77.2128 237.212L86.8871 238.144C89.9409 238.447 93.018 238.75 96.0952 239.1C98.0534 239.31 100.035 239.636 102.016 239.892C102.716 239.916 103.485 239.962 104.371 240.032Z" fill="#68031B"/>
<path d="M4.19619 86.7731C4.19619 87.3792 4.40596 87.892 4.45258 88.4282C4.6857 91.0158 4.82561 93.65 5.15198 96.2376C5.50937 99.3455 6.29382 102.389 7.48315 105.283C8.20581 107.008 8.76531 108.803 9.46466 110.528C10.164 112.253 11.1897 114.141 11.7958 116.006C13.0314 119.596 15.0362 122.86 16.4582 126.403C17.7194 129.813 18.6941 133.322 19.3721 136.893C19.8151 139.224 20.2346 141.556 20.7009 144.027C20.7698 144.269 20.8635 144.503 20.9806 144.726C21.61 144.609 21.6101 144.167 21.6334 143.794C21.6567 143.421 21.6334 142.535 21.6334 141.929C21.3611 138.452 21.4862 134.956 22.0063 131.508C22.3888 129.557 22.9266 127.639 23.6148 125.774C25.2466 121.741 27.0417 117.731 28.8134 113.745C30.3675 110.279 31.9915 106.813 33.6855 103.348C35.2072 100.117 36.9602 97.001 38.9306 94.023C39.1593 93.6758 39.4167 93.3483 39.7 93.0439C39.9143 93.144 40.0885 93.3136 40.1943 93.5252C40.3001 93.7368 40.3313 93.978 40.2828 94.2095C40.2828 95.7714 40.3993 97.3333 40.2828 98.8719C40.2748 100.243 40.197 101.612 40.0496 102.975C39.7466 105.306 39.3735 107.637 39.0472 109.968C38.7674 111.926 38.4644 113.908 38.2546 115.889C37.8903 118.519 37.3134 121.115 36.5295 123.652C35.9934 125.657 35.4339 127.639 34.8744 129.643C34.1051 132.371 33.3592 135.122 32.5432 137.872C31.9138 140.04 31.0979 142.162 30.5151 144.33C29.6935 147.47 29.2167 150.69 29.0931 153.934C29.0931 157.268 28.9532 160.578 28.86 163.912C28.8285 164.654 28.7507 165.394 28.6269 166.126C28.5419 166.508 28.4248 166.883 28.2772 167.245C27.5545 167.245 27.3214 166.919 27.0883 166.499C25.3699 163.517 23.4131 160.68 21.237 158.014C20.5144 157.105 19.7917 156.172 18.9059 155.333C14.1427 150.253 10.2093 144.455 7.25002 138.152C5.60494 134.655 4.20294 131.049 3.05394 127.359C1.43624 121.847 0.527527 116.152 0.349768 110.411C0.118768 105.09 0.581104 99.7612 1.72515 94.5592C2.14476 92.3912 2.68094 90.2232 3.1938 88.0552C3.18667 87.7585 3.28269 87.4685 3.46549 87.2347C3.64829 87.0009 3.90653 86.8377 4.19619 86.7731V86.7731Z" fill="#68031B"/>
<path d="M337.888 83.7438C338.424 85.329 338.96 86.7044 339.38 88.1031C341.519 95.7641 342.207 103.757 341.408 111.671C341.032 116.895 340.086 122.062 338.587 127.08C337.691 130.072 336.577 132.994 335.253 135.822C334.147 137.976 332.852 140.028 331.384 141.953C326.045 149.296 320.66 156.593 315.299 163.889C314.995 164.286 314.716 164.985 314.04 164.729C313.364 164.472 313.574 163.796 313.574 163.26C313.574 161.045 313.573 158.808 313.713 156.593C313.918 152.526 313.486 148.451 312.431 144.517C311.639 141.86 310.753 139.249 309.937 136.591C309.121 133.934 308.468 131.579 307.769 129.062C307.209 127.104 306.673 125.145 306.184 123.187C305.578 120.856 304.995 118.525 304.459 116.194C303.923 113.863 303.363 111.322 302.943 108.851C301.988 104.419 301.449 99.9081 301.335 95.3764C301.3 94.9108 301.3 94.4433 301.335 93.9777C301.365 93.6197 301.478 93.2735 301.664 92.9662C301.85 92.6589 302.104 92.3987 302.407 92.206C302.623 92.4517 302.803 92.7263 302.943 93.0219C303.694 95.3194 304.687 97.5309 305.904 99.6191C307.513 102.673 309.191 105.657 310.893 108.641C311.709 110.063 312.664 111.415 313.597 112.744C314.79 114.532 315.798 116.438 316.604 118.432C317.303 120.087 317.979 121.765 318.725 123.374C319.97 126.043 320.653 128.939 320.73 131.883C320.73 133.864 320.94 135.846 321.08 137.85C321.058 138.146 321.096 138.443 321.192 138.724C321.289 139.004 321.441 139.262 321.639 139.482C321.787 139.189 321.912 138.885 322.012 138.573C322.409 136.825 322.758 135.076 323.178 133.328C323.933 130.148 324.93 127.031 326.162 124.003C327.887 119.83 329.775 115.704 331.43 111.485C332.526 108.734 333.435 105.913 334.251 103.069C335.966 97.3779 336.907 91.4814 337.048 85.5388C337.188 84.5831 337.188 84.5831 337.888 83.7438Z" fill="#68031B"/>
<path d="M322.657 120.684C322.419 120.319 322.209 119.937 322.028 119.541C321.399 117.816 320.816 116.091 320.186 114.366C318.874 110.81 317.203 107.396 315.198 104.179C312.424 99.5165 309.183 95.437 306.083 91.1243C303.518 87.5498 301.024 83.952 298.6 80.331C297.074 77.9215 295.823 75.3489 294.87 72.6614C294.077 70.61 293.308 68.5819 292.539 66.4838C291.769 64.3857 291.513 62.4042 291 60.3528C290.975 60.2771 290.975 60.1954 291 60.1197C291 59.8166 291 59.3504 291.257 59.1872C291.513 59.024 291.956 59.3271 292.212 59.6068C293.751 61.3319 295.173 63.1502 296.875 64.782C299.929 67.8592 303.052 70.8431 306.199 73.827C308.86 76.2391 311.375 78.808 313.729 81.5199C316.764 84.9618 318.916 89.09 320 93.5487C320.053 93.7818 320.131 94.0085 320.233 94.2247C320.233 94.2247 320.396 94.3646 320.513 94.4579C321.095 94.1548 321.002 93.6186 321.026 93.1291C321.026 91.3341 321.026 89.5391 321.026 87.7441C321.026 81.8928 321.026 76.0882 321.259 70.167C321.259 65.7145 321.632 61.262 321.772 56.8094C321.888 54.6197 321.888 52.4253 321.772 50.2355C321.475 46.971 320.523 43.7997 318.974 40.9108C318.694 40.3514 318.391 39.7919 318.158 39.2324C317.925 38.6729 317.902 38.4631 318.321 38.3232C318.741 38.1834 318.928 38.3232 319.114 38.603C319.977 39.5588 320.839 40.5145 321.655 41.5403C324.239 44.9716 326.45 48.6678 328.252 52.5667C330.145 56.5185 331.442 60.7294 332.099 65.0618C333.011 70.5756 333.308 76.1736 332.985 81.753C332.832 85.0768 332.324 88.3748 331.469 91.5905C330.91 93.6186 330.071 95.5535 329.441 97.5816C328.812 99.6098 328.206 101.684 327.669 103.759C326.737 107.396 325.898 111.056 324.919 114.669C324.429 116.418 323.706 118.119 323.077 119.844C322.955 120.133 322.815 120.413 322.657 120.684Z" fill="#68031B"/>
<path d="M19.6321 122.536C19.4716 122.163 19.3315 121.782 19.2125 121.394C18.5831 118.9 18.0469 116.382 17.3709 113.888C16.6949 111.393 15.9955 109.435 15.2263 107.22C14.2705 104.376 13.2447 101.532 12.2423 98.7117L10.7504 94.5156C9.99955 92.233 9.4305 89.8945 9.0486 87.5221C8.2803 82.6113 8.09253 77.6272 8.48914 72.6725C8.67304 68.8836 9.2195 65.121 10.121 61.4363C10.8007 59.1161 11.739 56.8797 12.9184 54.7691C14.5735 51.622 16.2752 48.5216 18.0936 45.4444C18.9392 44.1764 19.8823 42.9761 20.9143 41.8544C21.2163 41.5784 21.5533 41.3432 21.9167 41.1551C22.0751 41.3847 22.1599 41.6571 22.1599 41.936C22.1599 42.215 22.0751 42.4873 21.9167 42.717C21.0268 44.5403 20.3389 46.4555 19.8653 48.4284C18.9427 52.3513 18.5971 56.3879 18.8395 60.4106C19.0494 63.6509 19.4456 66.8679 19.8419 70.0849C20.6761 75.6099 21.1046 81.1886 21.1241 86.7761C21.1241 90.0631 20.7278 93.3267 20.518 96.6137C20.4019 97.6829 20.4019 98.7615 20.518 99.8307C20.8219 99.2841 21.0642 98.7056 21.2407 98.1056C23.2382 90.1468 27.3829 82.8894 33.2228 77.1251C36.224 74.0315 39.4498 71.1641 42.8739 68.5464C43.5005 68.0168 44.0779 67.4316 44.599 66.798C45.6946 65.5391 46.7436 64.2104 47.7927 62.9049C47.9548 62.6887 48.1428 62.493 48.3522 62.3221C48.6319 62.1356 49.0516 61.9025 49.2381 61.9958C49.3702 62.0971 49.4768 62.2278 49.5497 62.3775C49.6225 62.5272 49.6595 62.6918 49.6576 62.8583C49.4846 64.3711 49.2277 65.8731 48.8883 67.3575C47.7649 70.9333 46.4419 74.4434 44.9254 77.871C42.9664 82.2976 40.4771 86.4698 37.5123 90.2962C35.6007 93.0237 33.8523 95.8444 32.034 98.6185C30.2157 101.393 28.0476 104.516 26.1594 107.524C23.9596 110.942 22.2931 114.676 21.2173 118.597C20.9376 119.646 20.4947 120.648 20.1217 121.674C19.9896 121.978 19.8255 122.267 19.6321 122.536V122.536Z" fill="#68031B"/>
<path d="M140.835 205.634C140.276 205.634 139.693 205.495 139.134 205.378C131.984 203.643 125.117 200.904 118.736 197.242C109.52 191.987 101.44 184.953 94.9653 176.549C88.4903 168.145 83.7492 158.539 81.0174 148.288C80.1782 145.141 79.6887 141.947 79.0826 138.753C78.1748 132.486 77.9559 126.139 78.4299 119.824C78.5841 118.316 78.8411 116.821 79.1991 115.348C80.7027 105.744 83.9414 96.4944 88.757 88.0502C93.6156 79.4953 100.027 71.9216 107.663 65.7176C115.535 59.2183 124.614 54.3382 134.378 51.3575C137.432 50.4251 140.556 49.749 143.703 49.0264C144.423 48.9421 145.15 48.9421 145.871 49.0264C145.544 49.2828 145.428 49.4227 145.265 49.4693C140.51 51.2735 135.876 53.3838 131.394 55.7868C126.86 58.2331 122.505 60.9987 118.363 64.0624C114.493 66.9203 110.861 70.0854 107.5 73.527C102.443 78.6993 98.057 84.4872 94.445 90.7543C91.6884 95.4497 89.4453 100.428 87.7546 105.604C85.9263 110.931 84.7826 116.469 84.3511 122.085C84.1296 126.107 84.1296 130.139 84.3511 134.161C84.5397 136.93 84.9371 139.681 85.5399 142.39C86.6312 147.913 88.3682 153.288 90.7151 158.405C96.4332 170.813 104.966 181.716 115.635 190.249C119.026 192.951 122.584 195.434 126.289 197.685C130.686 200.282 135.231 202.617 139.903 204.679L140.999 205.238L140.835 205.634Z" fill="#68031B"/>
<path d="M24.6492 81.8963C24.5577 81.3483 24.4955 80.7958 24.4628 80.2412C24.4628 77.91 24.626 75.5788 24.4628 73.0845C24.2063 68.4221 23.7634 63.8997 23.507 59.284C23.3089 56.8714 23.3089 54.4466 23.507 52.034C23.904 48.424 24.4876 44.837 25.2554 41.2873C26.2284 36.9923 28.3009 33.0239 31.2698 29.7713C33.1932 27.6186 35.2321 25.5719 37.3775 23.6403C39.6517 21.6752 42.2353 20.0998 45.0237 18.978C45.599 18.7488 46.2029 18.5998 46.8187 18.5351C46.9502 18.5249 47.082 18.5497 47.2007 18.607C47.3195 18.6643 47.421 18.7521 47.4948 18.8614C47.4948 19.0246 47.3782 19.3277 47.285 19.5608C47.2167 19.6555 47.1293 19.7349 47.0285 19.7939C44.5915 21.7651 42.6177 24.2482 41.2472 27.0672C40.1375 29.1129 39.314 31.3014 38.7995 33.5711C37.6572 38.2335 36.6781 42.686 35.4892 47.2318C34.65 50.4721 33.601 53.6658 32.6219 56.8828C32.2023 58.3049 31.7127 59.7036 31.2931 61.1256C31.2152 61.4869 31.1607 61.8529 31.1299 62.2212C31.4096 62.2212 31.5728 62.0814 31.5962 62.0114C33.8179 57.7772 36.9174 54.0658 40.6877 51.1249C45.0237 47.5815 49.4763 44.1313 53.8356 40.7045C56.5314 38.6649 58.98 36.3179 61.1321 33.711C61.6916 33.0116 62.1579 32.2424 62.7173 31.5197C62.9846 31.1406 63.2978 30.7961 63.6498 30.494C64.2093 30.0744 64.792 30.3075 64.792 31.0068C64.7871 31.6753 64.7011 32.3407 64.5356 32.9883C62.8577 38.9115 60.0472 44.4531 56.2599 49.3065C51.4243 55.3051 45.8292 60.6494 39.6154 65.2051C35.2541 68.583 31.3859 72.5532 28.1227 77.0009C27.3412 78.1725 26.6252 79.3866 25.978 80.6375C25.6517 81.197 25.5118 81.7098 24.6492 81.8963Z" fill="#68031B"/>
<path d="M188.672 179.403C188.22 179.182 187.752 178.995 187.273 178.843C184.219 177.911 181.119 177.095 178.088 176.092C173.628 174.619 169.337 172.673 165.29 170.288C164.803 170.047 164.384 169.688 164.07 169.245C163.757 168.801 163.559 168.286 163.495 167.747C163.262 165.952 162.889 164.157 162.516 162.059C162.853 162.208 163.181 162.379 163.495 162.571C167.614 166.004 172.198 168.837 177.109 170.987C179.617 172.07 182.204 172.959 184.849 173.645C185.12 173.677 185.394 173.677 185.665 173.645C185.665 173.645 185.874 173.645 186.038 173.528C185.804 172.945 185.245 172.922 184.802 172.735C181.841 171.5 178.858 170.404 175.92 169.052C171.401 167.083 167.173 164.502 163.355 161.383C163.059 161.156 162.816 160.867 162.643 160.537C162.47 160.207 162.371 159.843 162.353 159.471C162.353 157.443 162.143 155.415 162.05 153.387C162.081 153.187 162.136 152.991 162.213 152.804C162.473 152.991 162.722 153.193 162.959 153.41C168.429 159.687 175.341 164.543 183.1 167.56C183.76 167.796 184.438 167.975 185.128 168.096C185.405 168.152 185.691 168.152 185.968 168.096V167.863C185.723 167.716 185.466 167.591 185.198 167.49C176.58 164.391 168.911 159.115 162.936 152.174C162.639 151.866 162.409 151.5 162.261 151.099C162.112 150.698 162.048 150.27 162.073 149.843C162.213 148.048 162.26 146.253 162.376 144.458C162.376 144.109 162.376 143.736 162.586 143.106C162.959 143.572 163.145 143.782 163.309 144.039C167.819 151.234 174.201 157.068 181.772 160.916C184.46 162.435 187.371 163.52 190.397 164.133C191.349 164.397 192.176 164.993 192.728 165.812C193.031 166.185 192.961 166.511 192.728 166.954C191.866 168.143 191.073 169.285 190.397 170.661C190.071 171.173 190.21 171.337 190.77 171.64C191.432 171.959 192.071 172.325 192.681 172.735C192.907 172.892 193.065 173.127 193.126 173.394C193.186 173.662 193.144 173.943 193.008 174.181C192.635 175.206 192.308 176.255 192.005 177.304C191.702 178.353 191.842 178.19 192.565 178.447C193.465 178.744 194.241 179.33 194.772 180.114C195.303 180.899 195.56 181.837 195.502 182.783C195.502 183.482 195.502 184.158 195.502 184.904C195.231 184.933 194.957 184.933 194.686 184.904C190.191 184.765 185.719 184.203 181.329 183.226C176.416 182.05 171.703 180.157 167.342 177.607C166.816 177.331 166.416 176.864 166.223 176.302L164.731 171.873C164.706 171.633 164.706 171.39 164.731 171.15C165.008 171.213 165.275 171.315 165.523 171.453C172.301 175.696 179.851 178.557 187.739 179.869H188.672C188.772 179.888 188.875 179.888 188.975 179.869L188.672 179.403Z" fill="#68031B"/>
<path d="M80.2986 2.22307C80.0187 2.70172 79.7072 3.16119 79.3662 3.59846C78.1306 4.99716 77.035 6.44248 75.5897 7.74794C72.7881 10.6942 70.2454 13.8764 67.99 17.2591C65.6588 20.6626 63.1179 24.0661 60.6235 27.3997C58.4281 30.3011 55.9359 32.9653 53.1871 35.349C49.5039 38.6127 45.7507 41.8064 42.0208 45.0234C41.5651 45.4503 41.0823 45.8475 40.5755 46.2123C40.2785 46.3335 39.9633 46.4044 39.643 46.4221C39.5268 46.1095 39.4791 45.7756 39.5031 45.443C39.7129 44.5804 40.0626 43.7412 40.319 42.8787C41.368 39.4519 42.4171 36.025 43.3962 32.5749C43.946 30.5531 44.753 28.6101 45.7973 26.7936C47.6883 23.4671 49.9145 20.3426 52.4411 17.4689C55.8165 13.6956 59.8942 10.6155 64.4467 8.40066L74.4241 3.48189C75.98 2.76005 77.64 2.28803 79.3429 2.08319C79.6661 2.08947 79.9872 2.13647 80.2986 2.22307V2.22307Z" fill="#68031B"/>
<path d="M102.787 142.6C103.067 142.227 103.16 141.971 103.323 141.878C103.577 141.772 103.843 141.702 104.116 141.668C104.802 141.569 105.425 141.213 105.858 140.672C106.291 140.131 106.502 139.445 106.447 138.754C106.447 137.309 106.447 135.863 106.447 134.418V122.576C106.447 122.342 106.447 122.109 106.447 121.876C106.447 119.918 105.864 119.312 103.929 119.032C103.813 119.032 103.65 119.032 103.58 119.032C103.387 118.886 103.234 118.694 103.137 118.473C103.137 118.473 103.393 118.17 103.58 118.076C103.772 118.04 103.97 118.04 104.162 118.076C106.96 118.076 109.781 118.076 112.601 118.076C112.927 118.053 113.25 118.142 113.517 118.329C113.785 118.516 113.98 118.789 114.07 119.102C115.818 123.322 117.637 127.518 119.432 131.714L119.968 132.833C120.224 132.343 120.411 132.063 120.527 131.76L125.469 119.475C125.551 119.345 125.614 119.203 125.656 119.055C125.686 118.892 125.749 118.735 125.842 118.597C125.934 118.458 126.053 118.339 126.193 118.247C126.332 118.156 126.489 118.094 126.653 118.064C126.817 118.035 126.985 118.039 127.148 118.076C128.057 118.076 128.943 118.076 129.852 118.076H135.237C135.508 118.041 135.782 118.041 136.053 118.076C136.269 118.192 136.466 118.342 136.636 118.519C136.449 118.683 136.309 118.962 136.123 119.032C135.936 119.102 135.26 119.032 134.864 119.265C134.458 119.349 134.092 119.567 133.826 119.884C133.559 120.202 133.408 120.6 133.395 121.014C133.395 121.293 133.395 121.573 133.395 121.853V139.08C133.395 140.969 133.955 141.575 135.727 141.831C135.873 141.807 136.023 141.807 136.17 141.831C136.333 141.831 136.542 142.111 136.519 142.204C136.487 142.301 136.435 142.39 136.367 142.467C136.299 142.543 136.216 142.604 136.123 142.647C135.892 142.694 135.654 142.694 135.424 142.647H124.35C123.954 142.647 123.278 142.88 123.255 142.181C123.231 141.481 123.907 141.784 124.28 141.714C125.796 141.481 126.472 140.782 126.472 139.383C126.472 134.301 126.472 129.219 126.472 124.137C126.472 123.998 126.472 123.834 126.472 123.438C126.215 123.881 126.052 124.091 125.936 124.347L118.942 141.598C118.942 141.761 118.779 141.948 118.709 142.134C118.639 142.321 118.289 142.717 117.846 142.717C117.653 142.751 117.454 142.716 117.283 142.618C117.113 142.52 116.982 142.365 116.914 142.181C116.448 141.038 115.912 139.85 115.422 138.754C113.394 134.092 111.342 129.196 109.314 124.441C109.314 124.231 109.105 124.021 108.895 123.625C108.79 123.91 108.719 124.208 108.685 124.51C108.685 129.173 108.685 134.045 108.685 138.824C108.618 139.148 108.62 139.482 108.692 139.805C108.764 140.128 108.904 140.432 109.103 140.696C109.301 140.961 109.554 141.18 109.843 141.34C110.133 141.499 110.453 141.595 110.783 141.621H111.109C111.459 141.621 111.995 141.621 111.902 142.227C111.809 142.833 111.366 142.6 111.039 142.6H103.883C103.556 142.74 103.323 142.67 102.787 142.6Z" fill="#68031B"/>
<path d="M164.797 118.09H165.939C168.27 118.09 170.601 118.09 173.073 118.09C173.439 118.063 173.807 118.133 174.138 118.292C174.47 118.452 174.753 118.696 174.961 119C178.085 122.986 181.255 126.972 184.402 130.958C184.538 131.145 184.648 131.349 184.728 131.565L185.055 131.401C185.122 131.165 185.168 130.923 185.195 130.679C185.195 128.348 185.195 125.9 185.195 123.522C185.185 122.742 185.123 121.963 185.008 121.191C184.942 120.704 184.725 120.25 184.385 119.894C184.046 119.538 183.603 119.298 183.12 119.209C182.857 119.164 182.6 119.094 182.351 119C182.141 119 182.024 118.627 181.861 118.44L182.421 117.997H190.044C190.158 118.019 190.268 118.058 190.37 118.114C190.603 118.697 190.37 119.023 189.81 119.139H189.461C188.884 119.197 188.349 119.468 187.961 119.899C187.573 120.331 187.36 120.891 187.363 121.471C187.363 121.937 187.363 122.403 187.363 122.869V141.519C187.363 141.985 187.363 142.428 187.363 142.871C186.964 143.078 186.501 143.126 186.068 143.005C185.635 142.883 185.265 142.602 185.031 142.218C181.371 137.556 177.642 133.033 173.958 128.441C173.049 127.322 172.117 126.11 171.231 125.061C171.099 124.863 170.99 124.652 170.905 124.431L170.601 124.618C170.514 124.85 170.459 125.093 170.438 125.34C170.438 129.606 170.438 133.872 170.438 138.115C170.426 138.309 170.426 138.504 170.438 138.698C170.438 139.457 170.731 140.187 171.257 140.735C171.783 141.282 172.5 141.605 173.259 141.635C173.632 141.635 174.145 141.635 174.122 142.148C174.098 142.661 173.539 142.568 173.189 142.568H165.799C165.607 142.603 165.409 142.603 165.216 142.568C165.053 142.568 164.867 142.358 164.844 142.218C164.841 142.128 164.864 142.039 164.909 141.96C164.955 141.882 165.02 141.818 165.1 141.775C165.427 141.653 165.762 141.552 166.102 141.472C166.655 141.372 167.157 141.086 167.526 140.663C167.894 140.239 168.108 139.702 168.13 139.141C168.154 138.714 168.154 138.286 168.13 137.859V122.729C168.169 121.91 167.92 121.102 167.426 120.447C166.932 119.791 166.225 119.329 165.426 119.139C164.844 118.976 164.843 118.976 164.797 118.09Z" fill="#68031B"/>
<path d="M154.491 118.131C154.747 118.131 155.05 118.131 155.353 118.131C157.684 118.131 160.016 118.131 162.51 118.131C162.883 118.131 163.466 117.945 163.559 118.551C163.652 119.157 163.023 119.134 162.65 119.204C161.944 119.308 161.307 119.682 160.872 120.248C160.437 120.813 160.238 121.525 160.319 122.234C160.319 125.871 160.319 129.484 160.319 133.121C160.308 134.607 160.168 136.089 159.899 137.55C159.671 138.795 159.091 139.949 158.228 140.874C157.364 141.8 156.253 142.458 155.027 142.772C152.245 143.611 149.277 143.611 146.495 142.772C145.158 142.49 143.948 141.784 143.045 140.759C142.142 139.734 141.594 138.445 141.483 137.084C141.389 135.999 141.35 134.909 141.366 133.82C141.366 130.044 141.366 126.244 141.366 122.444C141.389 122.017 141.389 121.589 141.366 121.162C141.38 120.708 141.222 120.266 140.924 119.925C140.626 119.583 140.209 119.367 139.758 119.32C139.488 119.283 139.223 119.22 138.965 119.134C138.755 119.134 138.476 118.831 138.452 118.644C138.429 118.458 138.779 118.178 139.082 118.155C139.276 118.143 139.47 118.143 139.665 118.155H150.201C150.433 118.119 150.669 118.119 150.901 118.155C151.106 118.286 151.288 118.451 151.437 118.644C151.25 118.807 151.087 119.04 150.877 119.11C150.668 119.18 150.038 119.11 149.619 119.32C149.229 119.391 148.877 119.594 148.622 119.896C148.366 120.198 148.224 120.58 148.22 120.975C148.22 121.208 148.22 121.442 148.22 121.675C148.22 126.757 148.22 131.839 148.22 136.897C148.215 137.947 148.601 138.962 149.304 139.742C150.006 140.522 150.975 141.012 152.02 141.117C152.745 141.193 153.478 141.104 154.164 140.858C154.85 140.612 155.472 140.214 155.983 139.695C156.927 138.859 157.533 137.706 157.684 136.454C157.848 134.939 157.988 133.424 158.011 131.792C158.011 128.855 158.011 125.917 158.011 123.003C158.034 122.685 158.034 122.366 158.011 122.048C157.801 120.556 157.428 119.25 155.47 119.11C154.747 119.087 154.211 118.994 154.491 118.131Z" fill="#68031B"/>
<path d="M208.252 200.24C206.9 202.152 204.686 202.408 202.588 203.154H204.593C204.613 203.252 204.612 203.353 204.589 203.45C204.566 203.548 204.521 203.638 204.459 203.716C204.397 203.795 204.318 203.858 204.228 203.902C204.138 203.945 204.04 203.969 203.94 203.97C202.852 204.268 201.733 204.44 200.606 204.483C200.104 204.453 199.605 204.587 199.185 204.865C198.765 205.142 198.445 205.548 198.275 206.022C197.459 207.793 197.273 207.863 195.408 207.234C194.335 206.884 193.286 206.395 192.214 206.022C191.366 205.732 190.502 205.49 189.626 205.299C188.414 205.066 187.901 205.579 187.901 206.814C187.924 206.969 187.924 207.126 187.901 207.28H187.738C187.086 207.024 186.829 206.325 186.503 205.742C186.227 205.121 185.993 204.483 185.803 203.83C185.034 204.297 185.174 205.019 185.127 205.625C185.081 206.231 185.127 206.814 185.127 207.42C185.127 207.42 184.941 207.42 184.894 207.42C184.389 207.124 183.951 206.727 183.609 206.252C183.266 205.778 183.025 205.238 182.902 204.665C182.78 204.093 182.777 203.502 182.895 202.928C183.014 202.355 183.25 201.813 183.589 201.336C183.923 200.897 184.348 200.534 184.835 200.273C185.321 200.012 185.858 199.857 186.409 199.821C187.456 199.782 188.504 199.86 189.533 200.054C189.829 200.14 190.142 200.142 190.439 200.059C190.735 199.977 191.003 199.814 191.212 199.588C192.61 198.072 194.149 196.674 195.501 195.112C197.228 193.013 198.233 190.413 198.368 187.699C198.368 187.396 198.368 187.092 198.508 186.603C198.887 186.783 199.246 187.002 199.58 187.256C200.583 188.165 201.609 189.074 202.588 190.03C204.081 191.644 205.957 192.854 208.043 193.55C208.742 193.76 208.859 194.109 208.346 194.645C207.619 195.406 206.84 196.115 206.015 196.767C205.59 197.054 205.284 197.484 205.152 197.979C206.9 197.723 208.439 196.977 210.094 196.767C208.416 199.098 205.805 199.494 203.427 200.473C204.217 200.764 205.085 200.764 205.875 200.473C206.691 200.31 207.483 200.007 208.206 199.774L208.252 200.24ZM190.745 201.802C190.466 201.583 190.121 201.464 189.766 201.464C189.411 201.464 189.067 201.583 188.787 201.802C189.51 201.919 189.999 202.268 190.745 201.802V201.802Z" fill="#68031B"/>
<path d="M182.446 88.6082C182.679 88.1653 182.749 87.8156 182.982 87.6291C183.088 87.5303 183.213 87.4545 183.349 87.4064C183.486 87.3582 183.63 87.3388 183.775 87.3493C183.912 87.3968 184.037 87.4735 184.142 87.5741C184.246 87.6747 184.328 87.7969 184.381 87.9321C184.501 88.5408 184.586 89.1556 184.637 89.7738C184.754 91.4056 184.894 93.0374 185.01 94.6925C185.023 94.871 185.023 95.0502 185.01 95.2287H183.728C183.181 94.0923 182.558 92.9941 181.863 91.9418C181.196 91.038 180.333 90.2976 179.338 89.7764C178.343 89.2552 177.243 88.9669 176.12 88.9332C174.998 88.8995 173.882 89.1213 172.858 89.5819C171.833 90.0426 170.927 90.7299 170.207 91.5921C168.79 93.174 167.888 95.1498 167.62 97.2568C167.117 100.255 167.617 103.336 169.042 106.022C169.582 107.141 170.35 108.134 171.298 108.937C172.246 109.74 173.351 110.335 174.543 110.684C176.456 111.192 178.492 110.924 180.208 109.938C180.355 109.852 180.482 109.734 180.579 109.593C180.675 109.452 180.74 109.291 180.768 109.122C180.768 106.675 180.768 104.204 180.628 101.756C180.628 100.427 180.045 100.031 178.763 99.7512C178.413 99.588 177.737 99.7512 177.83 99.1451C177.924 98.539 178.46 98.7954 178.809 98.7954C181.513 98.7954 184.194 98.7954 186.899 98.7954C187.248 98.7954 187.784 98.6089 187.854 99.1684C187.924 99.7279 187.365 99.6113 187.015 99.7046C186.5 99.7687 186.028 100.026 185.695 100.424C185.362 100.822 185.192 101.331 185.22 101.849C185.22 102.852 185.22 103.877 185.22 104.88C185.22 106.488 185.22 108.097 185.22 109.705C185.253 109.992 185.188 110.282 185.036 110.527C184.883 110.773 184.653 110.959 184.381 111.057C182.202 112.116 179.809 112.659 177.387 112.643C175.555 112.708 173.721 112.599 171.909 112.316C169.364 111.8 167.065 110.448 165.375 108.476C163.686 106.504 162.704 104.024 162.584 101.43C162.382 99.0391 162.834 96.6386 163.894 94.4862C164.954 92.3339 166.58 90.5112 168.599 89.2143C170.154 88.2185 171.933 87.6256 173.774 87.4892C176.338 87.1666 178.941 87.4871 181.35 88.4217C181.71 88.5128 182.076 88.5752 182.446 88.6082V88.6082Z" fill="#68031B"/>
<path d="M140.713 93.6659C140.496 93.6823 140.278 93.6823 140.061 93.6659C139.789 93.6812 139.517 93.6812 139.245 93.6659C139.165 91.7087 139.282 89.7485 139.595 87.8147H140.947H158.99C160.086 87.8147 160.202 87.8147 160.295 89.0036C160.389 90.1925 160.295 90.8219 160.295 91.7078C160.295 92.5936 160.295 93.0132 160.295 93.6426C159.013 93.9457 158.873 93.8757 158.64 92.8267C158.498 91.9888 158.064 91.2279 157.416 90.6779C156.768 90.1279 155.947 89.8239 155.097 89.8195C154.281 89.8195 153.465 89.8195 152.766 89.8195C152.066 89.8195 151.857 89.8195 151.833 90.7986C151.833 92.0574 151.833 93.293 151.833 94.5518C151.833 98.7479 151.833 102.921 151.833 107.093C151.844 107.875 151.914 108.654 152.043 109.425C152.049 109.901 152.239 110.357 152.574 110.696C152.909 111.035 153.362 111.231 153.838 111.243C154.187 111.22 154.538 111.22 154.887 111.243C154.973 111.269 155.05 111.317 155.112 111.383C155.173 111.448 155.216 111.529 155.237 111.616C155.237 111.733 155.074 111.942 154.91 111.989C154.687 112.036 154.457 112.036 154.234 111.989H145.189C144.816 111.989 144.187 112.175 144.14 111.593C144.094 111.01 144.723 111.15 145.119 111.126C145.738 111.126 146.331 110.881 146.768 110.444C147.205 110.006 147.451 109.413 147.451 108.795C147.474 108.36 147.474 107.925 147.451 107.49V90.9618C147.451 90.5655 147.451 90.1925 147.451 89.703C146.084 89.4806 144.691 89.4806 143.325 89.703C142.739 89.899 142.215 90.2456 141.806 90.708C141.397 91.1704 141.117 91.7322 140.993 92.3372C140.853 92.8733 140.807 93.223 140.713 93.6659Z" fill="#68031B"/>
<path d="M137.018 111.686C136.878 112.129 136.482 112.083 136.156 112.083H126.831C126.678 112.118 126.518 112.118 126.365 112.083C126.209 111.986 126.068 111.868 125.945 111.733C126.085 111.593 126.202 111.36 126.388 111.29C126.659 111.266 126.932 111.266 127.204 111.29C127.746 111.231 128.25 110.985 128.629 110.593C129.008 110.201 129.238 109.689 129.279 109.145C129.302 108.718 129.302 108.29 129.279 107.863V91.545C129.279 89.8432 128.836 89.0739 126.761 88.7009C126.598 88.7009 126.435 88.7009 126.295 88.7009C126.151 88.5978 126.019 88.4807 125.898 88.3513C126.038 88.1881 126.155 87.9783 126.341 87.9083C126.573 87.8732 126.809 87.8732 127.041 87.9083H136.062C136.412 87.9083 136.972 87.9083 136.995 88.3279C137.018 88.7476 136.459 88.7476 136.109 88.7942C134.291 89.0506 133.778 89.75 133.778 91.7314C133.778 96.1374 133.778 100.567 133.778 104.972C133.778 106.185 133.778 107.304 133.778 108.609C133.778 110.474 134.454 111.173 136.342 111.36C136.575 111.243 136.948 111.197 137.018 111.686Z" fill="#68031B"/>
<path d="M123.929 88.1697C123.781 88.3353 123.608 88.4769 123.416 88.5893C123.145 88.6121 122.872 88.6121 122.601 88.5893C122.028 88.6527 121.499 88.926 121.116 89.3565C120.732 89.787 120.522 90.3442 120.526 90.9205C120.526 91.3401 120.526 91.783 120.526 92.2027V108.521C120.526 110.129 121.342 110.852 122.973 111.155C123.346 111.155 123.789 111.155 123.906 111.645C124.023 112.134 123.347 112.041 123.02 112.041H113.695C113.542 112.077 113.383 112.077 113.229 112.041C113.074 111.945 112.932 111.827 112.81 111.691C112.973 111.551 113.089 111.318 113.253 111.272C113.523 111.236 113.798 111.236 114.068 111.272C114.61 111.213 115.115 110.967 115.494 110.575C115.873 110.183 116.103 109.671 116.143 109.127C116.166 108.7 116.166 108.272 116.143 107.845V91.853C116.143 89.3819 115.793 88.9856 113.369 88.5194C113.136 88.5194 112.81 88.2863 112.786 88.1231C112.763 87.9599 113.113 87.7035 113.416 87.6802H122.74C123.113 87.6802 123.51 87.6802 123.883 87.6802L123.929 88.1697Z" fill="#68031B"/>
<path d="M259.422 0C259.886 0.0848557 260.345 0.19379 260.797 0.326363C264.807 1.91156 268.91 3.35689 272.826 5.17521C278.55 7.63296 283.696 11.262 287.932 15.8287C292.444 21.2418 295.892 27.4584 298.096 34.1517C298.958 36.6927 299.774 39.2569 300.614 41.8212C300.823 42.4507 301.126 43.0334 301.313 43.6862C301.37 44.0101 301.37 44.3414 301.313 44.6653C300.987 44.6722 300.663 44.6168 300.357 44.5021C299.68 44.0464 299.026 43.5562 298.399 43.0334C293.17 38.8093 288.188 34.2871 283.48 29.4893C279.156 24.9734 275.174 20.1424 271.567 15.0361C269.679 12.3086 267.464 9.81424 265.46 7.18001C264.11 5.50287 262.62 3.94317 261.007 2.51767C260.207 1.88375 259.648 0.995425 259.422 0Z" fill="#68031B"/>
<path d="M276.273 27.6775C276.533 27.9484 276.775 28.2366 276.996 28.54C278.441 30.4749 279.817 32.4797 281.355 34.3447C282.237 35.3824 283.23 36.3205 284.316 37.1421C285.621 38.1911 287.043 39.1236 288.395 40.1027C291.263 42.1774 294.13 44.2988 297.021 46.3502C300.001 48.4305 302.704 50.8825 305.063 53.6468C305.693 54.3928 306.369 55.1154 307.045 55.8148C307.301 56.0712 307.628 56.2577 307.907 56.4908H308.187C308.234 56.1427 308.234 55.7899 308.187 55.4418C307.231 51.9916 306.252 48.4483 305.32 45.0681C304.131 40.6621 302.989 36.2096 301.846 31.8037C301.032 28.4641 299.61 25.303 297.65 22.479C296.485 20.9171 295.039 19.565 293.734 18.1197C293.221 17.5602 292.731 16.9774 292.172 16.3247C292.43 16.186 292.718 16.1133 293.011 16.1133C293.304 16.1133 293.592 16.186 293.85 16.3247C296.185 17.0433 298.383 18.1463 300.354 19.5883C306.035 23.4356 310.678 28.6241 313.875 34.6944C315.788 38.4721 316.831 42.6299 316.929 46.8631C317.325 57.2834 317.255 67.8436 317.115 78.1474C317.07 78.5862 317 79.022 316.906 79.4529H316.649C316.433 79.272 316.244 79.0599 316.09 78.8234C313.807 74.9405 310.892 71.4659 307.464 68.543C303.268 64.4634 298.536 60.9667 294.013 57.2601C288.934 53.2671 284.54 48.4718 281.006 43.0633C279.921 41.1695 278.979 39.1981 278.185 37.1654C277.048 34.5063 276.31 31.6942 275.994 28.8198C275.947 28.4468 275.737 28.0505 276.273 27.6775Z" fill="#68031B"/>
</svg>
