<svg width="1512" height="1626" viewBox="0 0 1512 1626" fill="none" xmlns="http://www.w3.org/2000/svg">
<g clip-path="url(#clip0_52_1288)">
<rect width="1513" height="1626" fill="#F1F8F3"/>
<g opacity="0.66">
<path d="M-11.6623 814.589C-12.8822 812.989 -12.8145 811.936 -10.8407 811.207C-7.78462 810.081 5.39856 816.63 8.28685 818.981C18.8218 814.281 18.4814 830.448 10.2029 832.673L6.30588 831.541L-9.18038 818.139L-10.7044 814.851L-9.34346 816.734C-10.7027 822.852 -12.211 828.954 -13.8699 835.026L-16.0714 835.649L-14.0886 835.103L190.905 1009.97L191.588 1015.63L178.719 1065.46L176.566 1065.89C175.441 1065.94 174.166 1065.96 173.13 1065.37C169.094 1063.06 158.302 1053.33 154.819 1049.73L153.961 1046.74C150.881 1044.7 147.829 1042.63 144.862 1040.46C141.896 1038.29 138.938 1036.13 136.208 1033.78C99.8469 1002.43 62.4657 970.128 27.5988 939.354C22.3889 935.817 18.2957 931.887 15.3239 927.566L16.8616 929.516C15.3296 935.452 13.7977 941.389 12.2637 947.333L10.0591 947.967L13.615 949.728C55.0211 984.86 96.8372 1020.83 138.291 1056.91C141.545 1059.74 144.262 1062.97 146.901 1066.21C143.584 1083.26 139.868 1100.21 135.76 1117.05L84.0431 1318.16C84.7179 1319.48 84.9825 1320.37 83.1501 1321.16C83.6602 1323.56 81.0497 1323.33 79.0907 1321.95L-56.876 1204.76C-57.4753 1204.15 -57.8511 1203.48 -58.0943 1202.72C-59.1264 1199.48 -53.2467 1177.53 -51.3799 1174.09C-50.8058 1173.03 -50.056 1172.66 -48.8104 1172.12C-28.3866 1090.5 -6.30431 1009.3 14.2406 927.71C14.5105 925.873 12.7423 924.678 11.4318 923.37C6.22631 918.175 -29.8573 889.347 -30.157 886.91L-11.6518 814.587L-11.6623 814.589Z" fill="#5D76FD"/>
<path d="M322.065 1308.75C319.219 1310.39 315.446 1311.21 310.751 1311.21C235.789 1324.87 160.165 1338.11 83.8785 1350.93L74.337 1351.3C71.7361 1352.7 68.6001 1351.41 64.9269 1347.43C3.84963 1294.2 -57.6104 1241.16 -119.454 1188.33L-120.668 1185.57C-119.595 1183.75 -113.286 1183.34 -110.984 1182.43L-48.8248 1172.12C-50.9205 1180.5 -55.4598 1192.45 -56.2121 1200.55C-56.3203 1201.72 -56.5728 1202.68 -55.4892 1203.74L80.8808 1321.26L83.1299 1321.17C82.8942 1320.52 82.7481 1319.48 83.1985 1319.4C139.153 1308.99 199.973 1298.74 255.397 1289.68L285.858 1172.43C287.75 1165.28 290.501 1158.39 293.242 1151.53L292.69 1148.41C300.652 1117.95 308.468 1087.26 316.111 1056.64C316.591 1054.72 317.829 1053.08 319.054 1051.52C318.971 1050.81 319.03 1050.13 319.094 1049.45C319.238 1047.94 320.326 1043.03 320.807 1042C320.875 1041.85 321.588 1041.98 322.485 1042.18L266.828 1258.51C272.062 1265.81 321.966 1304.96 322.066 1308.75L322.065 1308.75Z" fill="#AAB7FE"/>
<path d="M222.464 793.122C225.022 799.005 214.76 810.856 220.463 816.949C263.999 853.496 306.143 891.225 349.619 927.824C353.816 931.354 358.963 937.37 363.067 940.287C366.409 942.323 365.974 942.823 362.371 943.699L231.291 930.734C199.625 904.461 168.8 878.134 138.824 851.757L136.202 850.586C135.75 848.92 135.326 847.182 135.652 845.541C138.276 832.366 142.089 819.154 146.157 806.437L148.317 805.854L215.076 812.813L220.061 795.472C218.434 794.698 217.578 793.744 217.497 792.598C218.155 789.415 220.498 791.032 222.464 793.122Z" fill="#5D76FD"/>
<path d="M125.979 783.424C124.094 783.136 122.122 782.87 120.06 782.635L116.938 783.739C97.1923 781.503 77.4549 779.592 57.739 778.013C65.5175 785.022 73.5709 791.914 81.9536 798.401L81.826 800.299L87.5409 802.987L115.847 827.669C114.858 834.666 113.356 841.653 111.346 848.631C114.446 852.237 117.96 855.565 121.884 858.607L122.796 856.872C129.652 857.253 133.371 855.436 133.952 851.426L136.2 850.585C138.078 847.695 143.165 852.995 145.058 854.597C174.157 879.252 201.724 905.452 231.844 929.25C274.768 933.788 317.714 937.603 360.645 941.753C362.647 941.945 364.491 942.964 363.064 940.29C370.487 945.571 390.958 942.465 398.791 945.27C406.035 947.864 419.337 964.175 426.986 968.541L414.719 1012.97L413.006 1011.7L423.626 970.093C355.095 963.618 286.4 956.747 217.553 949.477L212.076 948.022C208.625 948.327 205.786 947.743 203.567 946.276C127.88 880.551 51.9838 815.282 -24.1249 750.46C-24.5721 756.326 -26.6505 761.75 -29.9106 766.652C-30.7443 763.655 -26.6367 747.48 -24.8821 747.008L124.575 762.291L126.037 759.452C129.001 756.945 132.291 762.898 132.776 765.091C133.106 766.581 128.958 780.639 128.005 782.809L125.964 783.442L125.979 783.424Z" fill="#AAB7FE"/>
<path d="M212.082 948.014C212.306 949.44 211.381 950.019 209.3 949.74C206.717 964.632 202.452 978.906 196.505 992.558C132.586 940.903 70.3722 887.604 10.2005 832.678C9.30754 828.863 13.8814 829.072 14.4105 827.298C14.5156 826.95 13.7555 820.188 13.4954 819.871C11.7217 817.748 8.87228 821.217 8.52952 821.122C7.3367 820.781 6.24965 819.141 4.94016 818.541C2.1295 817.253 -7.27425 812.746 -9.44601 812.6C-10.529 812.526 -10.9084 814.076 -11.6684 814.589C-14.9955 810.122 -35.187 795.813 -36.0218 792.365C-36.7661 789.299 -31.0998 771.157 -29.9084 766.639C-28.2994 760.522 -26.7688 754.354 -25.1598 748.237L-21.5241 749.729L205.557 945.736L212.072 948.011L212.082 948.014Z" fill="#5D76FD"/>
<path d="M322.064 1308.75L309.821 1356.41L308.216 1358.5L61.1191 1402.5L59.408 1401.22L72.1787 1351.73L74.3327 1351.3C150.796 1339.1 226.166 1323.56 302.462 1310.86C308.646 1309.83 315.731 1308.3 322.061 1308.74L322.064 1308.75Z" fill="#203290"/>
<path d="M74.3375 1351.3L61.1239 1402.51L59.2283 1402.44L-132.304 1236.4L-133.004 1233.2L-120.661 1185.57C-112.98 1190.23 -105.829 1196.9 -99.0552 1202.72C-46.9314 1247.51 3.79185 1293.89 56.6823 1337.96C60.0878 1340.8 67.74 1347.96 70.7294 1349.82C71.8854 1350.54 72.9318 1351.13 74.3327 1351.3L74.3375 1351.3Z" fill="#5D76FD"/>
<path d="M10.2029 832.677C72.3395 885.92 134.531 939.17 196.508 992.557L198.106 994.253C196.136 999.871 194.787 1005.63 194.063 1011.54L192.299 1012.82C194.27 1014.4 196.753 1014.78 199.753 1013.97C204.43 1015.2 208.887 1015.61 213.119 1015.18C213.536 1014.53 213.851 1014.64 214.071 1015.45L217.134 1015.44C218.084 1013.42 218.788 1013.74 219.038 1015.97L222.101 1015.97C222.519 1015.31 222.834 1015.42 223.053 1016.23C228.376 1017.57 233.805 1018.3 239.343 1018.43C247.277 1018.28 252.266 1023.9 242.203 1024.41C246.903 1029.02 245.829 1032.25 239.504 1033.53C238.181 1038.64 229.121 1034.55 229.062 1029.76C218.468 1023.72 214.289 1023.68 216.517 1029.64L213.445 1037.45C210.508 1038.92 210.575 1040.96 213.637 1043.55C209.613 1049.96 216.604 1052.21 220.052 1046.45C225.388 1045.36 231.127 1045.31 237.268 1046.28C237.319 1041.72 244.078 1038.99 249.059 1040.57C250.728 1037.94 253.9 1037.2 258.571 1038.33C259.708 1036.38 261.457 1035.12 264.221 1035.26C278.013 1036.49 275.437 1033.3 256.483 1025.7C249.914 1025.5 250.363 1021.24 256.128 1020.81C262.504 1021.63 268.736 1021.76 274.824 1021.2C276.651 1019.28 278.051 1019.43 279.791 1021.73C287.731 1024.33 297.246 1025.48 304.832 1023.55C310.832 1021.5 320.601 1022.98 326.604 1026.18C331.095 1027.89 336.056 1028.78 341.49 1028.84C342.524 1030.19 344.44 1030.24 347.235 1029L364.647 1029.04C366.607 1026.59 376.486 1028.46 379.651 1030.22C378.952 1029.84 377.917 1029.27 377.986 1028.76C378.257 1026.82 381.814 1011.87 382.508 1011.24C383.063 1010.73 383.891 1010.6 384.711 1010.61L383.502 1012.17C321.564 1006.23 259.63 1000.28 197.692 994.335L196.505 992.547C200.14 977.729 204.32 963.033 207.881 948.185C207.97 948.021 211.413 947.963 212.082 948.003C280.9 952.062 351.975 963.768 421.032 967.773L426.08 968.95L414.724 1012.96L386.689 1010.69C384.112 1011.39 382.026 1028.45 380.176 1031.51C363.538 1034.57 346.377 1036.75 329.847 1040.1C328.043 1040.47 323.641 1041.32 322.481 1042.17C319.782 1044.17 320.287 1048.5 319.051 1051.51C314.308 1051.92 317.977 1042.68 318.894 1043.6L318.466 1041.91C313.133 1041.27 307.503 1040.78 301.568 1040.45C300.748 1043.98 297.483 1046 291.773 1046.49C291.905 1049.05 289.5 1049.07 287.552 1047.03C282.436 1048.04 277.4 1048.03 272.443 1047.02C260.813 1051.59 248.054 1054.65 234.166 1056.19C235.035 1057.71 234.387 1058 233.007 1056.73L229.738 1057.53C229.598 1059.22 228.704 1059.32 227.627 1057.8C225.502 1057.61 223.671 1057.47 222.247 1058.88C222.59 1061.5 217.348 1061.91 215.915 1059.69C210.579 1060.02 205.286 1060.64 200.046 1061.55C195.181 1054.96 190.808 1055.69 186.931 1063.75L183.842 1065.34C183.705 1069.1 174.343 1069.98 176.558 1065.89L190.506 1011.88L-16.0799 835.646L-10.7119 814.844C-3.2789 820.325 3.26874 826.726 10.2002 832.668L10.2029 832.677Z" fill="#304BD7"/>
<path d="M206.16 733.706C206.75 731.778 208.28 732.156 209.992 733.49C211.326 739.551 209.304 750.449 199.588 747.313C187.177 751.256 173.773 753.392 161.309 757.243C159.919 759.724 157.92 763.614 159.554 766.277L156.099 782.397C153.324 785.952 153.994 786.738 158.114 784.772C177.699 786.461 198.371 788.272 217.499 792.603C218.585 793.141 222.228 793.336 222.159 794.397C221.734 800.629 217.709 808.277 216.853 814.68L147.391 807.441C143.039 821.596 140.662 836.482 136.204 850.595C135.531 852.727 135.765 854.747 133.754 856.409C132.062 857.807 124.552 858.574 121.888 858.617C119.421 858.707 118.783 855.266 119.083 853.433L142.198 764.038C138.835 764.929 137.317 765.077 133.995 764.23C132.751 766.46 130.067 761.538 129.843 760.189C129.556 758.454 131.718 751.441 134.235 751.434L134.361 749.604C157.687 743.857 181.018 738.107 204.361 732.357L206.158 733.714L206.16 733.706Z" fill="#304BD7"/>
<path d="M270.513 721.597C269.368 722.474 268.526 722.257 267.316 721.488L217.068 733.335C215.479 738.424 214.363 746.17 214.613 752.774L212.843 755.283C208.857 755.721 204.976 747.687 199.594 747.309C202.173 746.487 205.276 746.664 206.427 744.477C206.989 743.407 209.029 735.918 208.972 734.95C208.91 733.887 206.582 734.071 206.165 733.706L204.156 733.207C203.427 730.32 198.188 724.108 194.454 725.547C193.541 725.465 192.413 725.232 192.006 724.532C191.689 723.985 194.193 714.756 195.062 713.463L249.209 700.35C251.662 700.531 266.625 715.644 270.511 717.729C271.767 719.129 270.52 720.462 270.519 721.594L270.513 721.597Z" fill="#5D76FD"/>
<path d="M212.836 755.283C212.093 747.428 213.338 739.203 215.288 731.96L267.976 719.538L270.512 721.595C270.515 724.567 269.345 741.044 268.036 742.163L212.836 755.283Z" fill="#203290"/>
<path d="M161.308 757.244L159.242 765.248C160.347 766.799 191.588 768.721 196.142 769.679C200.896 774.865 220.289 788.133 222.461 793.123C220.676 791.893 218.712 792.723 217.494 792.599C195.981 790.408 174.431 788.524 152.922 785.785C156.053 777.627 156.478 766.726 159.809 758.881C160.122 758.14 160.296 757.447 161.308 757.244Z" fill="#AAB7FE"/>
<path d="M206.159 733.702L134.236 751.422L133.123 752.257C129.091 750.325 125.362 747.474 121.939 743.713C121.954 743.597 120.653 742.746 121.79 741.999C122.453 741.562 126.31 740.654 127.6 740.302C147.405 734.913 167.961 730.844 187.859 725.631C194.173 724.57 191.301 715.475 195.055 713.462L193.036 723.204C193.642 725.066 195.661 722.523 198.43 724.169C199.506 724.806 204.111 729.222 205.061 730.348C206.263 731.78 206.015 733.572 206.159 733.702Z" fill="#AAB7FE"/>
<path d="M134.236 751.424C134.253 755.296 128.854 761.683 133.996 764.219C137.948 763.831 139.566 764.264 137.968 767.846C134.855 772.378 133.253 777.497 133.175 783.199C132.001 786.56 125.884 788.142 125.978 783.426C126.308 777.897 131.277 769.02 130.81 763.929C130.581 761.396 127.611 760.668 126.046 759.435C125.075 758.672 123.5 758.152 122.824 757.411C119.826 754.137 121.403 747.574 121.939 743.715C126.97 743.044 129.638 750.578 134.236 751.424Z" fill="#5D76FD"/>
<path d="M293.244 1151.53C281.363 1197.94 269.608 1244.45 256.851 1290.62L83.1327 1321.17L81.9419 1317.87C103.731 1234.03 125.05 1150.03 146.883 1066.22L148.451 1065.2L288.389 1148.12C291.474 1148.62 293.089 1149.76 293.245 1151.52L293.244 1151.53Z" fill="#304BD7"/>
<path d="M318.471 1041.92C318.805 1042.21 320.284 1041.88 320.305 1042.94C320.34 1044.69 318.83 1047.28 318.565 1049.31C318.427 1050.36 319.074 1051.41 319.055 1051.52C313.476 1083.78 301.473 1119.4 293.248 1151.53L287.595 1149.57L146.887 1066.22C144.657 1062.92 149.495 1044.82 151.378 1045.14L153.952 1046.75C161.05 1052.8 169.293 1060.38 176.562 1065.9C176.938 1066.19 176.506 1066.95 178.322 1066.93C180.347 1066.8 181.923 1065.65 183.846 1065.36C193.508 1061.71 204.199 1059.82 215.919 1059.7C218.109 1059.26 220.449 1059.27 222.251 1058.89C223.514 1057.5 225.578 1057.53 227.631 1057.82C228.311 1057.67 229.063 1057.69 229.742 1057.54L233.011 1056.74C233.395 1056.66 233.764 1056.29 234.17 1056.2L262.871 1050.84C270.585 1048.18 278.814 1046.91 287.556 1047.05C288.912 1047.03 290.383 1046.61 291.777 1046.51C300.41 1043.24 309.309 1041.72 318.47 1041.93L318.471 1041.92Z" fill="#203290"/>
<path d="M153.948 1046.74C151.189 1045.5 151.791 1047.45 151.331 1048.98C149.626 1054.63 148.373 1060.5 146.883 1066.22C117.091 1041.89 88.6563 1016.35 59.766 991.239C43.196 976.836 25.8711 962.926 10.0419 947.967L15.3066 927.565C26.9354 935.649 36.8424 945.562 47.4299 954.656C82.9442 985.155 118.224 1016.31 153.948 1046.74Z" fill="#304BD7"/>
<path d="M121.884 858.604C121.668 858.609 121.227 859.253 120.307 859.002C118.607 858.529 109.889 850.516 109.517 849.17C108.365 844.994 115.295 830.969 114.23 828.314L81.8258 800.296L83.3684 799.083C88.1103 800.124 117.115 803.593 118.67 802.212C119.352 801.605 123.547 786.222 123.415 785.328C121.326 785.021 120.206 784.122 120.057 782.64C121.445 781.572 124.161 782.971 125.976 783.429C126.397 783.538 127.062 784.897 128.694 784.661C133.03 784.033 131.483 777.432 132.287 774.475C133.173 771.222 136.151 768.402 136.85 765.021C135.977 764.645 134.763 764.603 133.993 764.226L144.95 761.272L120.838 854.51L121.882 858.612L121.884 858.604Z" fill="#5D76FD"/>
<path d="M120.055 782.638C121.967 783.02 123.869 783.794 125.773 784.225L120.175 804.161C118.948 805.02 90.5154 802.083 86.8401 801.476C85.156 801.201 83.425 800.929 81.8222 800.299C79.9231 799.552 57.6478 780.625 55.5436 778.26C54.6653 777.274 53.7686 776.913 54.5358 775.561C57.7414 776.307 61.2917 776.944 64.5306 777.244C81.4413 778.819 103.76 779.369 120.055 782.638Z" fill="#304BD7"/>
<path d="M196.504 992.559L384.71 1010.62L379.651 1030.22C379.302 1031.58 367.038 1029.27 364.647 1029.05C351.649 1030.03 338.971 1029.07 326.609 1026.18C319.426 1025.53 312.048 1024.22 304.837 1023.56C296.943 1025.38 287.907 1024.51 279.796 1021.73C278.151 1021.58 276.492 1021.37 274.829 1021.21C257.647 1021.32 240.385 1019.66 223.048 1016.24C222.729 1016.17 222.415 1016.02 222.096 1015.97L219.033 1015.98C218.405 1015.88 217.76 1015.55 217.129 1015.45L214.066 1015.45C213.747 1015.41 213.435 1015.23 213.114 1015.19C206.864 1014.89 200.605 1014.57 194.328 1014.22L192.294 1012.83C191.206 1008.72 195.331 997.339 196.504 992.559Z" fill="#203290"/>
<path d="M274.832 1021.21C269.12 1025.2 258.724 1020.25 252.776 1023.64C254.186 1024.09 255.548 1023.62 256.97 1024.14C258.983 1024.88 273.831 1031.5 274.471 1032.16C275.43 1033.15 274.198 1036.44 273.315 1037.12C271.823 1038.25 265.004 1036.38 262.593 1037.13C260.852 1037.66 260.516 1039.56 259.55 1039.9C258.284 1040.36 253.91 1039.22 252.34 1039.74C251.139 1040.15 251.186 1041.94 250.08 1042.22C248.749 1042.55 246.762 1041.39 245.081 1041.67C244.783 1041.72 240.025 1043.89 239.806 1044.07C238.788 1044.89 240.383 1047.17 237.945 1047.88C235.351 1048.64 225.758 1046.09 221.781 1047.54C219.939 1048.21 219.924 1052.28 214.293 1051.31C213.551 1051.18 209.843 1048.66 209.754 1048.43C209.159 1046.98 211.901 1045.1 211.786 1043.66C211.681 1042.31 208.902 1041.28 208.783 1040.02C208.637 1038.45 211.065 1037.87 211.68 1036.58C212.25 1035.38 214.177 1030.31 214.696 1028.85C215.333 1027.05 213.597 1024.84 214.325 1024.07C217.112 1021.15 226.511 1027.81 230.639 1027.73C231.652 1033.83 231.647 1032.42 237.622 1034.85C236.427 1030.15 242.28 1032.94 243.292 1029.13C243.796 1027.24 238.864 1025.89 240.633 1023.3C241.533 1021.99 245.706 1023.67 246.219 1021.39C240.72 1018.52 232.274 1019.43 227.067 1018.24C225.207 1017.81 223.443 1016.3 223.051 1016.22C240.284 1016.93 257.599 1019.56 274.832 1021.19L274.832 1021.21Z" fill="#304BD7"/>
<path d="M364.647 1029.05C359.419 1031.26 350.729 1028.21 345.347 1031.32C343.896 1032.15 344.323 1034.04 342.667 1035.43C339.782 1037.87 334.03 1036.2 330.459 1034.97C328.224 1028.76 343.68 1035.38 341.629 1031.23C339.851 1027.64 328.136 1031.56 326.609 1026.18C339.21 1027.34 352.005 1027.88 364.647 1029.05Z" fill="#304BD7"/>
<path d="M215.915 1059.7C205.219 1061.84 194.723 1063.68 183.842 1065.35C185.909 1061.93 188.892 1055.39 193.951 1055.07C197.261 1054.86 199.067 1059.76 200.947 1060.38C203.08 1061.09 212.386 1057.87 215.915 1059.7Z" fill="#304BD7"/>
<path d="M287.552 1047.05L234.166 1056.2C242.898 1054.28 254.529 1052.51 262.708 1050.43C265.251 1049.79 271.26 1045.54 271.85 1045.43C273.291 1045.17 277.231 1046.98 279.628 1047.22C281.035 1047.37 285.459 1047.07 287.552 1047.05Z" fill="#304BD7"/>
<path d="M318.468 1041.92C309.771 1044.11 300.962 1045.82 291.775 1046.5C293.044 1044.85 295.815 1045.34 297.322 1044.02C301.803 1040.13 296.051 1038.04 306.742 1038.86C308.634 1039 310.428 1039.9 312.24 1040.16C316.045 1040.69 314.032 1038.07 318.468 1041.92Z" fill="#304BD7"/>
<path d="M209.484 1021.09C209.681 1021.37 208.732 1023.11 209.244 1024.39C209.528 1025.11 211.217 1025.58 211.261 1026.4C211.539 1031.75 206.994 1026.44 205.357 1027.56C205.004 1027.81 202.042 1031.26 201.957 1031.53C201.463 1033.01 204.198 1033.87 200.767 1036.36C200.196 1036.77 199.375 1038.53 198.361 1036.8C198.124 1036.4 198.403 1028.73 198.719 1028.1C200.161 1025.24 206.601 1025.22 205.761 1019.99C206.677 1020.39 209.225 1020.7 209.49 1021.08L209.484 1021.09Z" fill="#304BD7"/>
<path d="M304.841 1023.56C304.848 1025.33 303.325 1025.04 301.901 1025.32C294.578 1026.77 286.338 1026.25 279.799 1021.74C288.093 1022.52 296.498 1022.79 304.841 1023.56Z" fill="#304BD7"/>
<path d="M213.113 1015.19C209.457 1018.48 204.039 1014.35 199.793 1014.23C197.037 1014.15 193.919 1018.94 192.293 1012.82C199.217 1013.81 206.182 1014.25 213.113 1015.19Z" fill="#304BD7"/>
<path d="M227.628 1057.81C225.838 1058.18 224.019 1058.51 222.248 1058.89C222.785 1056.37 225.213 1056.91 227.628 1057.81Z" fill="#304BD7"/>
<path d="M193.505 1039.75L193.303 1040.54L190.252 1040.56C190.323 1038.32 191.226 1039.03 193.505 1039.75Z" fill="#304BD7"/>
<path d="M233.011 1056.74L229.741 1057.54C230.567 1057.37 231.779 1057 233.011 1056.74Z" fill="#83B5EF"/>
<path d="M222.099 1015.97C221.948 1015.94 220.778 1016.24 219.037 1015.97L222.099 1015.97Z" fill="#83B5EF"/>
<path d="M217.13 1015.44C216.978 1015.42 215.773 1015.7 214.067 1015.45L217.13 1015.44Z" fill="#83B5EF"/>
</g>
<g opacity="0.66" filter="url(#filter0_f_52_1288)">
<path d="M220.777 169.518C220.702 168.933 220.873 168.676 221.481 168.78C222.421 168.942 224.807 172.535 225.196 173.555C228.558 173.906 226.103 177.959 223.676 177.31L222.853 176.452L220.887 170.782L220.982 169.725L221.051 170.402C219.81 171.755 218.533 173.083 217.223 174.381L216.573 174.216L217.156 174.368L243.554 248.775L242.899 250.31L232.333 261.069L231.723 260.864C231.431 260.711 231.105 260.529 230.929 260.227C230.243 259.049 228.929 255 228.574 253.575L228.793 252.692C228.311 251.722 227.84 250.75 227.404 249.765C226.969 248.781 226.535 247.799 226.188 246.802C221.553 233.52 216.8 219.847 212.461 206.93C211.657 205.269 211.194 203.672 211.073 202.14L211.178 202.86C209.919 204.142 208.661 205.424 207.401 206.708L206.748 206.546L207.393 207.513C212.753 222.494 218.093 237.749 223.327 252.976C223.738 254.171 223.954 255.39 224.149 256.598C220.81 260.438 217.384 264.194 213.873 267.868L171.288 311.321C171.266 311.755 171.202 312.02 170.621 311.953C170.4 312.635 169.77 312.196 169.476 311.557L152.142 261.901C152.079 261.66 152.083 261.432 152.132 261.204C152.344 260.232 157.053 255.522 158.03 254.923C158.331 254.739 158.576 254.754 158.971 254.8C176.11 237.082 193.61 219.712 210.777 202.018C211.115 201.591 210.841 201.029 210.7 200.505C210.141 198.424 205.208 185.823 205.489 185.16L220.78 169.519L220.777 169.518Z" fill="#5D76FD"/>
<path d="M233.065 343.806C232.103 343.804 231.026 343.46 229.834 342.773C208.811 335.257 187.681 327.537 166.445 319.613L163.969 318.311C163.104 318.285 162.498 317.497 162.148 315.95C154.449 293.493 146.623 271.031 138.671 248.563L138.766 247.687C139.306 247.382 140.966 248.203 141.684 248.309L158.968 254.798C157.208 256.617 154.305 258.986 152.928 260.93C152.729 261.211 152.525 261.418 152.644 261.845L170.031 311.646L170.616 311.951C170.651 311.752 170.766 311.468 170.892 311.512C186.616 317.068 203.55 323.379 218.942 329.199L243.849 303.909C245.377 302.371 247.084 301.028 248.785 299.687L249.102 298.814C255.585 292.252 262.064 285.61 268.491 278.959C268.893 278.543 269.447 278.309 269.987 278.092C270.069 277.901 270.185 277.735 270.3 277.572C270.558 277.21 271.553 276.124 271.827 275.932C271.865 275.905 272.028 276.042 272.226 276.224L226.409 322.965C226.668 325.584 233.595 342.831 233.066 343.805L233.065 343.806Z" fill="#AAB7FE"/>
<path d="M283.332 198.372C283.119 200.24 278.779 201.743 279.334 204.125C285.027 219.777 290.193 235.525 295.864 251.182C296.411 252.693 296.836 254.973 297.45 256.315C298 257.321 297.816 257.384 296.774 257.078L265.411 234.585C261.225 223.279 257.26 212.082 253.518 200.997L253.024 200.316C253.153 199.827 253.3 199.324 253.624 198.955C256.22 195.996 259.123 193.202 262.018 190.571L262.652 190.74L278.572 202.286L282.378 198.616C282.079 198.182 282.001 197.814 282.148 197.511C282.782 196.8 283.139 197.554 283.332 198.372Z" fill="#5D76FD"/>
<path d="M260.27 181.775C259.834 181.426 259.373 181.07 258.884 180.708L257.93 180.531C253.247 177.071 248.518 173.694 243.747 170.405C244.694 173.323 245.728 176.252 246.904 179.126L246.594 179.589L247.65 181.108L251.217 191.518C249.941 193.149 248.536 194.702 247.004 196.178C247.262 197.547 247.666 198.906 248.216 200.253L248.702 199.947C250.386 201.048 251.596 201.132 252.331 200.199L253.024 200.315C253.924 199.857 254.439 201.947 254.684 202.631C258.456 213.15 261.613 223.837 265.77 234.289C275.997 241.729 286.336 248.989 296.622 256.331C297.101 256.674 297.42 257.202 297.45 256.315C298.56 258.742 304.209 260.953 305.786 262.812C307.244 264.532 308.23 270.62 309.531 272.848L299.909 282.326L299.66 281.753L308.451 272.75C292.01 261.067 275.585 249.259 259.18 237.328L258.003 236.156C257.083 235.728 256.448 235.164 256.1 234.467C246.523 206.7 236.826 179.019 227.01 151.42C226.037 152.843 224.715 153.914 223.17 154.681C223.397 153.798 226.809 150.296 227.324 150.433L263.01 176.207L263.797 175.701C264.916 175.499 264.879 177.492 264.681 178.119C264.546 178.545 261.434 181.505 260.874 181.916L260.264 181.778L260.27 181.775Z" fill="#AAB7FE"/>
<path d="M258.006 236.156C257.854 236.55 257.534 236.562 257.047 236.186C254.21 239.587 251.036 242.584 247.527 245.177C238.875 222.705 230.897 200.065 223.675 177.312C224.007 176.213 225.137 176.936 225.532 176.564C225.609 176.491 226.407 174.664 226.388 174.545C226.248 173.747 225.017 174.209 224.944 174.135C224.691 173.874 224.656 173.298 224.411 172.954C223.887 172.216 222.161 169.694 221.631 169.339C221.367 169.162 221.044 169.499 220.776 169.518C220.586 167.897 217.559 161.308 217.852 160.311C218.112 159.424 222.208 155.65 223.172 154.678C224.477 153.362 225.769 152.021 227.073 150.705L227.777 151.616L256.684 234.622L258.004 236.154L258.006 236.156Z" fill="#5D76FD"/>
<path d="M233.064 343.807L222.974 354.107L222.261 354.402L153.113 329.367L152.866 328.792L163.357 318.105L163.967 318.309C185.157 326.416 206.56 333.515 227.78 341.471C229.5 342.116 231.522 342.765 233.063 343.805L233.064 343.807Z" fill="#203290"/>
<path d="M163.968 318.312L153.113 329.369L152.642 329.074L128.366 258.881L128.657 257.966L138.767 247.688C140.034 249.995 140.871 252.736 141.737 255.205C148.402 274.207 154.478 293.408 161.442 312.34C161.891 313.559 162.783 316.497 163.269 317.407C163.457 317.76 163.636 318.063 163.967 318.311L163.968 318.312Z" fill="#5D76FD"/>
<path d="M223.676 177.312C231.643 199.925 239.623 222.549 247.528 245.176L247.685 245.841C246.363 246.978 245.176 248.242 244.127 249.635L243.492 249.701C243.761 250.39 244.335 250.851 245.215 251.085C246.222 252.083 247.293 252.839 248.429 253.351C248.63 253.248 248.694 253.321 248.632 253.558L249.41 254.005C249.947 253.631 250.079 253.815 249.815 254.418L250.593 254.866C250.795 254.762 250.859 254.834 250.796 255.072C251.951 256.192 253.221 257.173 254.608 258.017C256.643 259.14 257.086 261.297 254.457 259.955C254.974 261.812 254.229 262.474 252.436 261.872C251.352 262.974 249.651 260.611 250.339 259.386C248.536 256.301 247.481 255.679 247.173 257.517L245.25 259.049C244.288 258.993 244.007 259.519 244.405 260.624C242.444 261.663 243.888 263.259 245.608 262.3C247.121 262.807 248.585 263.634 250 264.781C250.682 263.63 252.796 263.929 253.829 265.059C254.638 264.636 255.552 264.912 256.571 265.884C257.145 265.556 257.774 265.491 258.455 265.933C261.775 268.264 261.588 267.078 257.891 262.374C256.255 261.359 256.992 260.346 258.518 261.08C260.016 262.222 261.578 263.168 263.205 263.919C263.95 263.699 264.283 263.942 264.388 264.779C266.021 266.604 268.267 268.29 270.476 268.91C272.299 269.268 274.56 271.077 275.616 272.767C276.504 273.86 277.632 274.812 279.003 275.623C279.067 276.117 279.546 276.41 280.438 276.505L284.849 279.068C285.706 278.733 287.938 280.655 288.485 281.564C288.362 281.366 288.184 281.068 288.275 280.951C288.628 280.498 291.721 277.225 291.99 277.166C292.206 277.118 292.433 277.208 292.641 277.33L292.106 277.548C277.259 266.966 262.415 256.383 247.568 245.801L247.529 245.173C250.622 241.946 253.836 238.829 256.915 235.583C256.962 235.554 257.844 236.044 258.008 236.152C274.876 247.264 291.197 260.647 308.133 271.781L309.242 272.819L299.913 282.323L293.131 277.641C292.375 277.439 289.346 281.463 288.429 281.968C283.758 280.308 279.084 278.347 274.398 276.776C273.886 276.605 272.645 276.175 272.225 276.222C271.248 276.334 270.742 277.506 269.987 278.089C268.724 277.498 271.008 275.692 271.107 276.058L271.245 275.568C269.986 274.623 268.629 273.675 267.171 272.721C266.446 273.497 265.322 273.53 263.8 272.82C263.46 273.487 262.846 273.141 262.65 272.338C261.205 271.843 259.928 271.105 258.818 270.121C255.197 269.577 251.512 268.484 247.762 266.841C247.76 267.352 247.553 267.333 247.389 266.807L246.442 266.532C246.159 266.94 245.917 266.835 245.866 266.291C245.355 265.932 244.911 265.628 244.344 265.776C244.046 266.493 242.656 265.828 242.618 265.054C241.215 264.357 239.781 263.739 238.319 263.202C238.05 260.816 236.833 260.362 234.668 261.84L233.651 261.79C233.066 262.723 230.561 261.576 231.723 260.862L243.175 249.2L216.572 174.214L220.981 169.722C222.065 172.202 222.788 174.786 223.677 177.309L223.676 177.312Z" fill="#304BD7"/>
<path d="M287.899 180.906C288.331 180.503 288.664 180.823 288.903 181.413C288.354 183.146 286.244 185.615 284.238 183.396C280.511 182.578 276.797 181.157 273.07 180.308C272.353 180.734 271.276 181.428 271.301 182.343L268.062 185.927C266.838 186.423 266.892 186.721 268.226 186.825C272.948 190.123 277.928 193.611 282.148 197.513C282.344 197.808 283.241 198.391 283.067 198.65C282.047 200.17 279.905 201.521 278.749 203.02L262.184 191.007C259.006 193.961 256.222 197.39 253.023 200.318C252.54 200.761 252.303 201.308 251.549 201.435C250.915 201.541 248.897 200.636 248.215 200.256C247.576 199.918 247.918 198.951 248.262 198.53L267.225 179.232C266.241 178.966 265.834 178.781 265.115 178.079C264.473 178.463 264.513 176.82 264.654 176.445C264.835 175.963 266.411 174.5 267.051 174.867L267.351 174.421C274.112 176.38 280.875 178.34 287.64 180.3L287.898 180.908L287.899 180.906Z" fill="#304BD7"/>
<path d="M306.003 187.263C305.584 187.318 305.402 187.139 305.208 186.767L290.721 182.411C289.573 183.47 288.155 185.272 287.251 186.984L286.434 187.362C285.358 186.889 285.55 184.282 284.24 183.397C285.015 183.567 285.776 184.066 286.389 183.68C286.688 183.49 288.303 181.889 288.43 181.635C288.57 181.356 287.953 181.062 287.9 180.908L287.464 180.487C287.702 179.648 287.282 177.304 286.124 177.122C285.904 176.968 285.652 176.743 285.652 176.506C285.651 176.321 287.639 174.346 288.049 174.145L303.71 178.75C304.306 179.155 305.888 185.183 306.569 186.281C306.683 186.82 306.171 186.976 306.005 187.263L306.003 187.263Z" fill="#5D76FD"/>
<path d="M286.433 187.359C287.395 185.257 288.916 183.352 290.472 181.8L305.662 186.367L306.004 187.26C305.569 188.015 302.858 192.025 302.362 192.117L286.433 187.359Z" fill="#203290"/>
<path d="M273.07 180.307L271.373 182.036C271.426 182.591 279.072 187.656 280.087 188.566C280.534 190.578 283.511 196.786 283.331 198.371C283.059 197.797 282.439 197.72 282.148 197.51C277.01 193.802 271.817 190.167 266.761 186.321C268.75 184.709 270.455 182.006 272.45 180.503C272.638 180.361 272.784 180.21 273.07 180.307Z" fill="#AAB7FE"/>
<path d="M287.9 180.907L267.053 174.866L266.648 174.915C265.908 173.834 265.38 172.564 265.062 171.108C265.083 171.081 264.877 170.674 265.275 170.651C265.508 170.638 266.619 170.972 266.998 171.072C272.813 172.606 278.626 174.585 284.438 176.177C286.196 176.833 286.8 174.105 288.047 174.144L286.108 176.32C285.989 176.881 286.874 176.532 287.335 177.355C287.515 177.674 288.036 179.47 288.112 179.894C288.208 180.434 287.882 180.852 287.9 180.907Z" fill="#AAB7FE"/>
<path d="M267.053 174.865C266.49 175.85 264.184 176.68 265.117 178.077C266.177 178.558 266.524 178.905 265.594 179.579C264.14 180.273 262.983 181.338 262.128 182.773C261.338 183.454 259.554 182.959 260.269 181.776C261.162 180.422 263.724 178.897 264.351 177.537C264.664 176.86 264.017 176.24 263.801 175.698C263.666 175.362 263.343 175 263.28 174.713C262.999 173.443 264.36 172.008 265.062 171.108C266.437 171.674 266.01 173.977 267.053 174.865Z" fill="#5D76FD"/>
<path d="M248.785 299.689C238.97 309.726 229.174 319.805 219.173 329.651L170.616 311.953L170.796 310.943C188.609 292.859 206.324 274.668 224.144 256.598L224.69 256.571L248.053 298.112C248.762 298.692 249.005 299.217 248.786 299.688L248.785 299.689Z" fill="#304BD7"/>
<path d="M271.244 275.572C271.286 275.695 271.71 275.827 271.56 276.1C271.313 276.547 270.551 276.983 270.185 277.461C269.997 277.706 270.007 278.068 269.986 278.094C263.844 285.462 255.58 292.742 248.785 299.69L247.638 298.365L224.144 256.6C224.062 255.436 227.941 251.552 228.372 251.909L228.79 252.694C229.705 255.268 230.685 258.401 231.721 260.867C231.775 260.994 231.553 261.124 232.017 261.386C232.55 261.648 233.118 261.589 233.649 261.795C236.636 262.285 239.624 263.373 242.616 265.059C243.236 265.269 243.829 265.614 244.342 265.781C244.867 265.612 245.386 265.922 245.865 266.296C246.058 266.36 246.247 266.473 246.44 266.537L247.388 266.812C247.497 266.847 247.644 266.809 247.76 266.845L255.829 269.69C258.176 270.144 260.45 271.029 262.648 272.343C262.995 272.538 263.43 272.647 263.799 272.824C266.467 273.261 268.949 274.178 271.243 275.573L271.244 275.572Z" fill="#203290"/>
<path d="M228.788 252.692C228.271 251.971 228.137 252.556 227.796 252.876C226.535 254.062 225.358 255.366 224.142 256.598C220.146 246.061 216.673 235.413 213.021 224.81C210.926 218.727 208.568 212.66 206.742 206.544L211.067 202.139C212.834 205.894 213.896 209.861 215.25 213.719C219.793 226.662 224.182 239.735 228.788 252.692Z" fill="#304BD7"/>
<path d="M248.216 200.253C248.16 200.223 247.954 200.322 247.757 200.123C247.395 199.754 246.357 196.444 246.46 196.047C246.779 194.819 250.592 192.275 250.711 191.446L246.593 179.589L247.162 179.507C248.213 180.466 255.065 185.595 255.662 185.473C255.924 185.418 259.242 182.129 259.339 181.883C258.854 181.499 258.702 181.107 258.881 180.709C259.39 180.642 259.874 181.395 260.268 181.777C260.358 181.866 260.328 182.308 260.777 182.488C261.969 182.963 262.543 181.062 263.181 180.429C263.882 179.734 265.051 179.454 265.724 178.699C265.557 178.475 265.255 178.287 265.115 178.079L268.328 178.934L248.55 199.061L248.214 200.255L248.216 200.253Z" fill="#5D76FD"/>
<path d="M258.882 180.708C259.311 181.085 259.681 181.56 260.101 181.948L255.759 186.187C255.322 186.225 248.538 181.314 247.694 180.622C247.307 180.305 246.907 179.983 246.593 179.588C246.22 179.12 243.341 171.054 243.153 170.146C243.075 169.767 242.9 169.544 243.293 169.313C243.997 169.972 244.805 170.654 245.583 171.205C249.643 174.082 255.226 177.491 258.882 180.708Z" fill="#304BD7"/>
<path d="M247.526 245.177L292.638 277.333L288.482 281.566C288.196 281.858 285.421 279.478 284.847 279.07C281.405 277.415 278.328 275.315 275.614 272.771C273.888 271.552 272.207 270.139 270.475 268.914C268.205 268.22 266.04 266.675 264.387 264.783C263.992 264.503 263.603 264.206 263.204 263.922C258.828 261.432 254.691 258.482 250.793 255.074C250.722 255.01 250.664 254.927 250.59 254.867L249.812 254.42C249.667 254.303 249.551 254.126 249.407 254.007L248.629 253.559C248.554 253.501 248.501 253.41 248.426 253.353C246.884 252.361 245.343 251.363 243.801 250.354L243.489 249.703C243.814 248.502 246.528 246.218 247.526 245.177Z" fill="#203290"/>
<path d="M263.203 263.925C261.17 264.099 259.257 261.319 257.25 261.31C257.543 261.63 257.958 261.709 258.242 262.05C258.645 262.532 261.442 266.388 261.508 266.65C261.606 267.042 260.811 267.697 260.488 267.738C259.943 267.808 258.487 266.334 257.766 266.17C257.246 266.051 256.883 266.483 256.587 266.428C256.199 266.358 255.256 265.428 254.781 265.332C254.417 265.258 254.166 265.72 253.845 265.628C253.459 265.517 253.124 264.933 252.656 264.758C252.573 264.727 251.048 264.58 250.967 264.592C250.588 264.652 250.659 265.464 249.936 265.287C249.167 265.099 247.106 263.047 245.884 262.833C245.319 262.733 244.718 263.765 243.432 262.692C243.262 262.551 242.691 261.368 242.701 261.298C242.763 260.842 243.735 260.765 243.916 260.385C244.087 260.027 243.534 259.357 243.688 259.02C243.881 258.6 244.581 258.81 244.927 258.572C245.247 258.351 246.479 257.346 246.825 257.052C247.249 256.689 247.133 255.874 247.43 255.786C248.566 255.451 249.975 258.519 251.035 259.103C250.398 260.799 250.602 260.442 251.763 261.934C252.148 260.566 253.225 262.131 254.039 261.314C254.444 260.907 253.392 259.841 254.219 259.445C254.64 259.243 255.452 260.282 255.917 259.777C254.942 258.243 252.664 257.238 251.518 256.172C251.109 255.791 250.882 255.15 250.795 255.072C255.065 257.775 259.072 260.982 263.206 263.92L263.203 263.925Z" fill="#304BD7"/>
<path d="M284.847 279.071C283.197 278.865 281.438 276.82 279.617 276.819C279.127 276.818 278.959 277.359 278.334 277.471C277.245 277.667 276.03 276.4 275.304 275.565C275.646 273.663 278.599 277.606 278.687 276.252C278.761 275.081 275.215 274.358 275.614 272.771C278.643 274.91 281.81 276.922 284.847 279.071Z" fill="#304BD7"/>
<path d="M242.614 265.06C239.587 264.036 236.653 262.966 233.647 261.796C234.673 261.231 236.388 260.009 237.719 260.667C238.59 261.099 238.33 262.607 238.715 263.041C239.153 263.534 241.986 264.08 242.614 265.06Z" fill="#304BD7"/>
<path d="M262.645 272.344L247.757 266.846C250.254 267.637 253.465 268.892 255.845 269.563C256.585 269.773 258.731 269.576 258.897 269.634C259.301 269.778 260.036 270.816 260.608 271.228C260.945 271.471 262.11 272.044 262.645 272.344Z" fill="#304BD7"/>
<path d="M271.243 275.573C268.716 274.854 266.23 273.997 263.798 272.825C264.363 272.59 264.995 273.121 265.569 273.009C267.277 272.676 266.124 271.303 268.716 273.078C269.175 273.392 269.499 273.882 269.921 274.213C270.808 274.906 270.681 273.947 271.243 275.573Z" fill="#304BD7"/>
<path d="M246.639 254.32C246.648 254.421 246.152 254.724 246.094 255.123C246.061 255.347 246.42 255.715 246.312 255.929C245.599 257.326 245.222 255.315 244.643 255.36C244.517 255.37 243.26 255.812 243.199 255.867C242.857 256.17 243.424 256.791 242.189 256.919C241.984 256.94 241.519 257.265 241.514 256.679C241.514 256.541 242.707 254.637 242.879 254.523C243.665 254.009 245.302 254.946 245.855 253.497C246.028 253.734 246.629 254.186 246.641 254.32L246.639 254.32Z" fill="#304BD7"/>
<path d="M270.474 268.917C270.216 269.367 269.872 269.071 269.47 268.933C267.399 268.228 265.384 266.89 264.387 264.786C266.377 266.199 268.47 267.499 270.474 268.917Z" fill="#304BD7"/>
<path d="M248.425 253.354C247.014 253.655 246.245 251.812 245.185 251.16C244.497 250.737 243.004 251.495 243.488 249.705C245.1 250.97 246.803 252.101 248.425 253.354Z" fill="#304BD7"/>
<path d="M245.864 266.296C245.355 266.128 244.846 265.944 244.341 265.781C244.846 265.221 245.383 265.713 245.864 266.296Z" fill="#304BD7"/>
<path d="M239.851 256.714L239.684 256.884L238.908 256.441C239.253 255.885 239.378 256.198 239.851 256.714Z" fill="#304BD7"/>
<path d="M247.388 266.811L246.44 266.536C246.675 266.613 247.036 266.698 247.388 266.811Z" fill="#83B5EF"/>
<path d="M250.591 254.867C250.556 254.839 250.215 254.744 249.813 254.42L250.591 254.867Z" fill="#83B5EF"/>
<path d="M249.407 254.006C249.372 253.978 249.025 253.873 248.629 253.559L249.407 254.006Z" fill="#83B5EF"/>
</g>
<g opacity="0.66" filter="url(#filter1_f_52_1288)">
<path d="M1054.13 1445.01C1052.67 1445.59 1052 1445.29 1052.18 1443.58C1052.46 1440.95 1061.16 1432.22 1063.67 1430.52C1064.1 1421.23 1074.61 1425.27 1073.31 1432.22L1071.26 1434.99L1057.29 1443.91L1054.62 1444.33L1056.31 1443.71C1059.88 1446.19 1063.38 1448.78 1066.82 1451.49L1066.49 1453.35L1066.79 1451.68L1250.09 1333.02L1254.04 1333.81L1282.47 1355.43L1282.04 1357.2C1281.7 1358.09 1281.28 1359.08 1280.55 1359.75C1277.68 1362.35 1267.69 1368.48 1264.16 1370.34L1261.92 1370.32C1259.54 1372.23 1257.16 1374.13 1254.75 1375.93C1252.34 1377.73 1249.93 1379.53 1247.47 1381.1C1214.74 1402.07 1181.05 1423.61 1149.19 1443.55C1145.13 1446.78 1141.18 1449.05 1137.35 1450.35L1139.15 1449.61C1142.54 1452.18 1145.92 1454.76 1149.32 1457.34L1149 1459.2L1151.34 1456.84C1188.24 1432.83 1225.83 1408.7 1263.36 1384.87C1266.31 1383 1269.34 1381.64 1272.35 1380.34C1282.44 1386.89 1292.33 1393.73 1302.03 1400.85L1416.88 1487.93C1417.97 1487.71 1418.64 1487.71 1418.55 1489.32C1420.29 1489.48 1419.28 1491.46 1417.71 1492.66L1295.35 1571.08C1294.75 1571.41 1294.18 1571.54 1293.6 1571.55C1291.13 1571.6 1278.67 1561.91 1277.03 1559.66C1276.53 1558.97 1276.54 1558.3 1276.6 1557.2C1229.8 1522.31 1183.83 1486.21 1137.09 1451.23C1135.97 1450.59 1134.59 1451.69 1133.3 1452.4C1128.15 1455.24 1097.17 1476.58 1095.47 1476.24L1054.13 1445L1054.13 1445.01Z" fill="#5D76FD"/>
<path d="M1490.14 1300.65C1490.27 1303.25 1489.55 1306.37 1487.98 1310.02C1471.93 1371.5 1455.39 1433.39 1438.35 1495.69L1435.41 1503.2C1435.46 1505.55 1433.57 1507.68 1429.73 1509.61C1374.37 1544.7 1319.02 1580.14 1263.67 1615.92L1261.45 1616.22C1260.61 1614.96 1262.45 1609.96 1262.62 1607.96L1276.59 1557.22C1281.4 1560.8 1287.74 1567.12 1292.8 1569.59C1293.54 1569.94 1294.08 1570.36 1295.14 1569.77L1417.86 1491.11L1418.55 1489.34C1418.04 1489.37 1417.31 1489.24 1417.41 1488.87C1429.25 1442.94 1442.82 1393.26 1455.36 1348.05L1388.5 1297.04C1384.44 1293.9 1380.83 1290.16 1377.24 1286.43L1375 1286.13C1357.65 1272.84 1340.1 1259.62 1322.53 1246.54C1321.44 1245.72 1320.77 1244.37 1320.16 1243.06C1319.66 1242.96 1319.23 1242.75 1318.81 1242.54C1317.87 1242.08 1315.01 1240.09 1314.48 1239.47C1314.41 1239.39 1314.73 1238.86 1315.17 1238.21L1438.7 1331.9C1445.24 1329.53 1487.62 1299.85 1490.14 1300.65L1490.14 1300.65Z" fill="#AAB7FE"/>
<path d="M1118.17 1257.96C1122.89 1257.34 1127.25 1268.08 1133.15 1265.06C1171.69 1239.73 1210.55 1215.75 1249.1 1190.47C1252.82 1188.03 1258.49 1185.43 1261.77 1182.91C1264.23 1180.79 1264.41 1181.24 1263.78 1184.25L1211.52 1283.16C1183.69 1301.66 1156.1 1319.49 1128.77 1336.66L1127.13 1338.42C1125.88 1338.39 1124.6 1338.31 1123.63 1337.67C1115.85 1332.56 1108.44 1326.52 1101.45 1320.39L1101.79 1318.58L1128.64 1268.29L1118.91 1260.37C1117.86 1261.46 1116.95 1261.9 1116.17 1261.7C1114.3 1260.44 1116.14 1259 1118.17 1257.96Z" fill="#5D76FD"/>
<path d="M1079.6 1330.72C1078.78 1332.12 1077.94 1333.59 1077.1 1335.14L1076.78 1337.83C1068.73 1352.66 1060.88 1367.56 1053.26 1382.53C1060.46 1378.11 1067.68 1373.45 1074.74 1368.45L1075.94 1368.99L1079.62 1365.17L1105.28 1348.91C1109.55 1351.31 1113.63 1354.11 1117.55 1357.3C1120.95 1355.72 1124.31 1353.77 1127.62 1351.43L1126.78 1350.31C1129.32 1345.07 1129.37 1341.75 1126.93 1340.37L1127.13 1338.42C1125.85 1336.29 1131.03 1333.57 1132.72 1332.47C1158.63 1315.59 1185.04 1300.26 1210.73 1282.38C1228.03 1250.06 1244.87 1217.56 1261.93 1185.14C1262.72 1183.63 1264.01 1182.43 1261.78 1182.92C1267.72 1178.38 1272.51 1161.73 1276.97 1156.3C1281.09 1151.27 1296.25 1144.72 1301.67 1139.79L1326.76 1159.69L1325.36 1160.72L1301.57 1142.77C1274.44 1194.55 1247 1246.37 1219.24 1298.21L1216.46 1302.13C1215.51 1304.88 1214.18 1306.95 1212.47 1308.34C1144.03 1351.88 1075.83 1395.68 1007.84 1439.76C1011.54 1441.48 1014.41 1444.36 1016.55 1448.03C1014.3 1447.98 1005.04 1441.02 1005.32 1439.55L1065.24 1326.89L1063.87 1325.09C1063.21 1322.2 1068.22 1321.03 1069.82 1321.17C1070.91 1321.26 1078.76 1327.76 1079.87 1329L1079.6 1330.74L1079.6 1330.72Z" fill="#AAB7FE"/>
<path d="M1216.46 1302.12C1217.47 1302.28 1217.54 1303.13 1216.66 1304.68C1225.58 1310.16 1233.54 1316.81 1240.52 1324.61C1185.25 1362.28 1129.47 1398.24 1073.31 1432.23C1070.5 1432.03 1072.17 1428.52 1071.18 1427.7C1070.99 1427.54 1066.29 1426.55 1066 1426.68C1064.01 1427.57 1065.34 1430.59 1065.16 1430.83C1064.54 1431.68 1063.1 1432.15 1062.27 1433.02C1060.48 1434.91 1054.38 1441.17 1053.56 1442.83C1053.15 1443.65 1054.04 1444.31 1054.13 1445.02C1050.08 1446.56 1033.94 1458.93 1031.4 1458.78C1029.14 1458.64 1019.11 1450.01 1016.54 1448.03C1013.06 1445.35 1009.52 1442.72 1006.04 1440.05L1008.23 1437.57L1212.78 1306.66L1216.45 1302.13L1216.46 1302.12Z" fill="#5D76FD"/>
<path d="M1490.14 1300.65L1517.36 1321.28L1518.2 1323.01L1464.63 1525.4L1463.22 1526.44L1434.98 1504.98L1435.41 1503.2C1452.91 1440.9 1467.86 1378.67 1484.99 1316.39C1486.38 1311.34 1487.73 1305.47 1490.14 1300.65L1490.14 1300.65Z" fill="#203290"/>
<path d="M1435.41 1503.2L1464.64 1525.4L1463.96 1526.86L1290.96 1637.11L1288.62 1636.91L1261.45 1616.21C1267.08 1611.32 1273.85 1607.32 1279.93 1603.41C1326.75 1573.31 1374.15 1544.68 1420.75 1513.82C1423.76 1511.83 1431.01 1507.55 1433.23 1505.66C1434.09 1504.93 1434.83 1504.25 1435.41 1503.2L1435.41 1503.2Z" fill="#5D76FD"/>
<path d="M1073.31 1432.22C1129.03 1396.31 1184.76 1360.36 1240.52 1324.61L1242.17 1323.76C1245.2 1326.6 1248.54 1328.99 1252.18 1330.93L1252.43 1332.6C1254.12 1331.44 1255.2 1329.59 1255.67 1327.07C1258.04 1323.72 1259.8 1320.35 1260.93 1316.96C1260.64 1316.49 1260.82 1316.27 1261.42 1316.28L1262.44 1313.9C1261.43 1312.69 1261.87 1312.22 1263.42 1312.54L1264.44 1310.16C1264.15 1309.68 1264.33 1309.46 1264.93 1309.48C1267.59 1305.65 1269.88 1301.6 1271.82 1297.33C1274.36 1291.12 1279.72 1288.55 1276.7 1296.5C1281.29 1293.92 1283.06 1295.5 1281.79 1300.72C1284.7 1302.94 1279 1309.03 1275.83 1307.96C1268.32 1314.79 1266.9 1318.03 1271.56 1317.69L1275.66 1321.9C1275.65 1324.52 1277.01 1324.95 1279.73 1323.17C1282.61 1327.79 1286.42 1322.88 1283.78 1318.86C1284.85 1314.45 1286.73 1309.98 1289.42 1305.43C1286.44 1304.33 1286.9 1298.44 1289.6 1294.93C1288.43 1293.02 1289 1290.38 1291.31 1287.01C1290.4 1285.67 1290.16 1284.02 1291.18 1281.9C1296.58 1271.47 1293.63 1272.73 1282.31 1285.69C1279.99 1290.75 1277.34 1289.41 1278.98 1284.83C1281.65 1280.06 1283.81 1275.25 1285.48 1270.38C1284.83 1268.52 1285.39 1267.46 1287.48 1266.64C1291.84 1261.08 1295.78 1253.95 1297.04 1247.6C1297.69 1242.45 1301.93 1235.2 1306.03 1231.28C1308.66 1228.19 1310.89 1224.54 1312.75 1220.32C1313.98 1219.83 1314.65 1218.36 1314.77 1215.89L1320.61 1202.36C1319.65 1200.27 1324.18 1193.02 1326.39 1190.97C1325.91 1191.43 1325.18 1192.1 1324.88 1191.93C1323.69 1191.26 1315.06 1185.01 1314.87 1184.33C1314.72 1183.78 1314.92 1183.1 1315.2 1182.47L1315.82 1183.77C1291.24 1230.55 1266.66 1277.32 1242.08 1324.1L1240.51 1324.61C1231.99 1318.33 1223.73 1311.65 1215.17 1305.42C1215.09 1305.32 1216.2 1302.63 1216.45 1302.12C1242.09 1249.55 1273.5 1197.01 1299.18 1144.24L1301.64 1140.59L1326.76 1159.68L1315.91 1180.95C1315.51 1183.11 1326.02 1188.71 1327.41 1190.86C1323.87 1204.51 1319.57 1218.37 1316.26 1232C1315.9 1233.49 1314.99 1237.11 1315.16 1238.21C1315.57 1240.78 1318.59 1241.39 1320.15 1243.05C1318.84 1246.84 1313.99 1241.83 1314.9 1241.33L1313.65 1241.27C1311.45 1245.27 1309.25 1249.53 1307.05 1254.07C1309.1 1255.53 1309.33 1258.54 1307.75 1263.1C1309.47 1263.59 1308.69 1265.47 1306.7 1266.51C1305.65 1270.72 1303.96 1274.63 1301.64 1278.25C1300.77 1288.36 1298.52 1298.99 1294.89 1310.15C1296.18 1309.83 1296.16 1310.4 1294.86 1311.18L1294.3 1313.91C1295.36 1314.41 1295.13 1315.13 1293.77 1315.61C1292.94 1317.22 1292.23 1318.61 1292.68 1320.05C1294.52 1320.39 1293.04 1324.56 1291.1 1325.16C1289.54 1329.39 1288.18 1333.65 1287.03 1337.93C1281.07 1340.18 1280.09 1343.75 1284.1 1348.64L1284.11 1351.42C1286.53 1352.4 1283.99 1359.88 1282.04 1357.21L1251.21 1333.78L1066.49 1453.35L1054.62 1444.33C1060.7 1439.83 1067.09 1436.23 1073.3 1432.22L1073.31 1432.22Z" fill="#304BD7"/>
<path d="M1073.7 1256.79C1072.63 1255.88 1073.39 1254.78 1074.83 1253.76C1079.26 1254.14 1085.75 1258.25 1080.44 1265.07C1078.89 1275.64 1075.82 1286.56 1074.19 1297.15C1075.36 1298.81 1077.24 1301.27 1079.54 1300.62L1088.98 1307.06C1090.38 1310.05 1091.12 1309.71 1091.21 1306.05C1098.85 1291.21 1106.94 1275.56 1116.17 1261.7C1116.89 1260.98 1118.23 1258.19 1118.91 1258.49C1122.86 1260.27 1126.54 1265.19 1130.46 1267.34L1102.52 1319.67C1110.37 1326.35 1119.35 1331.67 1127.14 1338.42C1128.31 1339.44 1129.72 1339.73 1130.14 1341.68C1130.49 1343.33 1128.49 1349.34 1127.63 1351.43C1126.86 1353.37 1124.39 1353.06 1123.29 1352.4L1072.27 1313.6C1071.74 1316.42 1071.33 1317.63 1069.66 1320.02C1070.71 1321.51 1066.58 1322.45 1065.62 1322.31C1064.39 1322.12 1060.5 1318.81 1061.34 1316.85L1060.18 1316.33C1064.19 1296.85 1068.2 1277.37 1072.21 1257.88L1073.7 1256.79L1073.7 1256.79Z" fill="#304BD7"/>
<path d="M1087.22 1203.93C1087.41 1205.02 1086.99 1205.63 1086.08 1206.39L1077.09 1248.22C1079.91 1250.64 1084.62 1253.31 1089.04 1254.66L1090.1 1256.62C1089.06 1259.82 1082.48 1260.97 1080.44 1265.06C1080.76 1262.87 1081.91 1260.5 1080.86 1259.09C1080.34 1258.4 1076.11 1255.07 1075.45 1254.89C1074.73 1254.69 1074.08 1256.55 1073.7 1256.78L1072.7 1258.23C1070.56 1258.12 1064.73 1260.75 1064.43 1263.99C1064.07 1264.68 1063.54 1265.5 1062.94 1265.66C1062.48 1265.78 1057.25 1261.68 1056.69 1260.7L1066.15 1215.54C1067.09 1213.68 1082.01 1205.56 1084.68 1203.03C1086.02 1202.38 1086.48 1203.66 1087.22 1203.92L1087.22 1203.93Z" fill="#5D76FD"/>
<path d="M1090.1 1256.63C1084.69 1255.37 1079.7 1252.49 1075.6 1249.28L1085.02 1205.42L1087.22 1203.93C1089.17 1204.62 1099.61 1209.37 1099.91 1210.65L1090.1 1256.63Z" fill="#203290"/>
<path d="M1074.19 1297.15L1078.76 1300.62C1080.15 1300.12 1091.84 1276.28 1093.99 1272.96C1098.98 1270.47 1114.17 1258.48 1118.17 1257.96C1116.77 1259.06 1116.66 1260.78 1116.17 1261.7C1107.55 1277.92 1099.12 1294.23 1090.14 1310.32C1085.83 1305.99 1078.81 1303.12 1074.76 1298.7C1074.38 1298.28 1073.99 1297.98 1074.19 1297.15Z" fill="#AAB7FE"/>
<path d="M1073.7 1256.79L1061.33 1316.84L1061.51 1317.9C1058.89 1320.59 1055.78 1322.82 1052.16 1324.61C1052.09 1324.57 1051.1 1325.38 1050.99 1324.33C1050.92 1323.71 1051.61 1320.5 1051.81 1319.41C1054.88 1302.76 1059.07 1285.82 1062.29 1269.14C1063.7 1263.98 1056.76 1264.09 1056.69 1260.71L1062.42 1264.55C1063.85 1264.51 1062.85 1262.35 1064.85 1260.58C1065.63 1259.89 1070.07 1257.34 1071.13 1256.86C1072.47 1256.26 1073.56 1256.87 1073.7 1256.79Z" fill="#AAB7FE"/>
<path d="M1061.33 1316.84C1063.88 1317.73 1066.27 1323.42 1069.65 1320.01C1070.72 1316.85 1071.54 1315.69 1073.36 1317.77C1075.3 1321.25 1078.13 1323.68 1081.85 1325.07C1083.66 1326.77 1082.66 1331.89 1079.6 1330.72C1076.07 1329.18 1071.9 1323.24 1068.4 1322.42C1066.66 1322.01 1065.19 1324.15 1063.86 1325.08C1063.03 1325.66 1062.16 1326.76 1061.45 1327.11C1058.3 1328.68 1054.52 1325.93 1052.16 1324.61C1053.4 1320.54 1059.24 1320.22 1061.33 1316.84Z" fill="#5D76FD"/>
<path d="M1377.24 1286.43C1403.76 1306.48 1430.39 1326.46 1456.46 1347.14L1418.55 1489.34L1415.99 1489.5C1368.18 1453.02 1320.12 1416.87 1272.34 1380.36L1272.2 1378.9L1373.38 1289.41C1374.74 1287.13 1376.02 1286.14 1377.24 1286.43L1377.24 1286.43Z" fill="#304BD7"/>
<path d="M1313.66 1241.27C1313.96 1241.08 1314.24 1239.85 1314.94 1240.08C1316.1 1240.46 1317.3 1242.24 1318.54 1242.92C1319.19 1243.27 1320.09 1243.02 1320.16 1243.06C1339.49 1254.91 1358.88 1272.54 1377.24 1286.43L1374.07 1290.37L1272.35 1380.36C1269.44 1381.32 1259.17 1373.34 1260 1371.95L1261.92 1370.33C1268.26 1366.22 1275.99 1361.57 1282.05 1357.21C1282.36 1356.98 1282.72 1357.5 1283.31 1356.08C1283.9 1354.47 1283.67 1352.98 1284.12 1351.42C1284.95 1343.05 1287.28 1334.3 1291.11 1325.16C1291.55 1323.35 1292.34 1321.54 1292.69 1320.05C1292.2 1318.74 1292.9 1317.14 1293.78 1315.61C1293.91 1315.05 1294.17 1314.47 1294.31 1313.91L1294.87 1311.18C1294.94 1310.86 1294.83 1310.49 1294.9 1310.15L1300.96 1286.59C1301.79 1279.97 1303.7 1273.27 1306.71 1266.51C1307.15 1265.45 1307.36 1264.21 1307.76 1263.1C1308.5 1255.62 1310.47 1248.35 1313.66 1241.27L1313.66 1241.27Z" fill="#203290"/>
<path d="M1261.91 1370.33C1260.17 1372.18 1261.66 1372.17 1262.5 1372.89C1265.65 1375.53 1269.09 1377.87 1272.34 1380.36C1246.42 1397.86 1220.15 1414.02 1194.01 1430.63C1179.02 1440.16 1164.1 1450.39 1148.99 1459.21L1137.35 1450.37C1146.54 1443.21 1156.36 1437.81 1165.86 1431.7C1197.75 1411.19 1229.99 1391.02 1261.91 1370.33Z" fill="#304BD7"/>
<path d="M1127.62 1351.42C1127.55 1351.59 1127.83 1352.09 1127.35 1352.74C1126.48 1353.95 1118.3 1358.87 1117.29 1358.84C1114.17 1358.77 1107.27 1350.11 1105.17 1350.32L1075.95 1368.99L1075.66 1367.51C1077.93 1364.06 1089.89 1342.31 1089.5 1340.78C1089.33 1340.11 1080.62 1333.27 1079.99 1333.16C1079.09 1334.71 1078.13 1335.37 1077.11 1335.14C1076.87 1333.82 1078.69 1332.03 1079.6 1330.73C1079.81 1330.42 1080.93 1330.22 1081.32 1328.9C1082.35 1325.38 1077.5 1325.05 1075.82 1323.73C1073.98 1322.29 1073.13 1319.31 1071.14 1317.98C1070.6 1318.57 1070.17 1319.51 1069.66 1320.02L1071.38 1310.81L1124.58 1351.28L1127.62 1351.43L1127.62 1351.42Z" fill="#5D76FD"/>
<path d="M1077.1 1335.14C1077.99 1333.75 1079.13 1332.45 1080.05 1331.07L1091.28 1340.07C1091.44 1341.22 1080.02 1362.64 1078.39 1365.36C1077.65 1366.61 1076.89 1367.89 1075.94 1368.99C1074.82 1370.29 1054.95 1383.2 1052.69 1384.29C1051.75 1384.74 1051.22 1385.35 1050.59 1384.44C1052.15 1382.12 1053.75 1379.51 1055.03 1377.06C1061.71 1364.28 1069.52 1347.05 1077.1 1335.14Z" fill="#304BD7"/>
<path d="M1240.52 1324.61L1315.2 1182.47L1326.39 1190.97C1327.16 1191.56 1321.56 1200.56 1320.61 1202.37C1316.92 1212.7 1312.06 1222.34 1306.04 1231.28C1303.21 1236.71 1299.89 1242.14 1297.04 1247.6C1295.6 1254.16 1292.02 1260.98 1287.49 1266.64C1286.84 1267.89 1286.15 1269.13 1285.49 1270.38C1279.82 1283.77 1272.97 1296.8 1264.94 1309.49C1264.78 1309.72 1264.58 1309.93 1264.44 1310.17L1263.43 1312.55C1263.15 1313.02 1262.72 1313.44 1262.44 1313.91L1261.42 1316.29C1261.29 1316.53 1261.07 1316.73 1260.93 1316.97C1258.65 1321.76 1256.35 1326.55 1254.02 1331.35L1252.43 1332.61C1249.37 1332.5 1243.27 1326.64 1240.52 1324.61Z" fill="#203290"/>
<path d="M1285.49 1270.38C1286.2 1275.75 1279.47 1282.68 1279.72 1288.1C1280.49 1287.11 1280.63 1285.94 1281.44 1284.95C1282.6 1283.56 1291.91 1273.56 1292.56 1273.21C1293.53 1272.7 1295.28 1274.42 1295.43 1275.27C1295.68 1276.69 1292.17 1281.56 1291.85 1283.61C1291.63 1285.08 1292.76 1285.79 1292.66 1286.62C1292.54 1287.71 1290.33 1290.84 1290.15 1292.19C1290.02 1293.22 1291.21 1293.6 1291.02 1294.52C1290.8 1295.63 1289.37 1296.91 1289 1298.28C1288.93 1298.53 1288.77 1302.73 1288.81 1302.94C1289.01 1303.93 1291.04 1303.22 1290.69 1305.28C1290.32 1307.47 1285.45 1314.34 1285.07 1317.77C1284.9 1319.36 1287.57 1320.32 1285.05 1324.47C1284.72 1325.02 1281.83 1327.31 1281.65 1327.33C1280.49 1327.45 1280.17 1324.88 1279.19 1324.64C1278.27 1324.4 1276.66 1326.32 1275.79 1326.12C1274.71 1325.87 1275.15 1323.85 1274.5 1323.07C1273.9 1322.34 1271.21 1319.66 1270.43 1318.92C1269.46 1318.01 1267.43 1318.84 1267.17 1318.1C1266.18 1315.25 1273.69 1309.49 1275.01 1306.26C1279.36 1306.9 1278.44 1306.57 1282.03 1302.49C1278.54 1302.33 1282.32 1298.43 1280.16 1296.75C1279.09 1295.92 1276.55 1299.44 1275.44 1297.46C1274.88 1296.45 1277.38 1293.6 1276.05 1292.67C1272.33 1296.28 1270.11 1303.06 1267.59 1306.83C1266.69 1308.18 1265.11 1309.2 1264.92 1309.48C1271.14 1296.25 1278.65 1283.4 1285.47 1270.38L1285.49 1270.38Z" fill="#304BD7"/>
<path d="M1320.61 1202.37C1320.32 1206.95 1315.42 1212.99 1315.66 1217.9C1315.72 1219.22 1317.1 1219.33 1317.47 1220.94C1318.11 1223.76 1315.09 1227.84 1313.09 1230.33C1308.27 1230.62 1317.77 1220.14 1314.36 1220.77C1311.41 1221.32 1310.07 1231.34 1306.03 1231.28C1311 1221.75 1315.62 1211.92 1320.61 1202.37Z" fill="#304BD7"/>
<path d="M1291.1 1325.16C1288.94 1333.98 1286.65 1342.57 1284.11 1351.42C1282.56 1349.01 1279.26 1345.17 1280.73 1341.16C1281.7 1338.54 1285.52 1338.27 1286.56 1336.96C1287.74 1335.47 1288.73 1327.48 1291.1 1325.16Z" fill="#304BD7"/>
<path d="M1306.7 1266.51L1294.9 1310.16C1296.55 1302.92 1299.27 1293.46 1300.63 1286.62C1301.06 1284.49 1300.28 1278.83 1300.4 1278.34C1300.71 1277.16 1303.21 1274.52 1304.17 1272.71C1304.74 1271.65 1306.02 1268.14 1306.7 1266.51Z" fill="#304BD7"/>
<path d="M1313.66 1241.28C1312.19 1248.55 1310.37 1255.8 1307.75 1263.1C1307.09 1261.73 1308.34 1259.69 1307.98 1258.21C1306.91 1253.82 1303.62 1257.8 1307.73 1249.68C1308.45 1248.24 1309.64 1247.06 1310.42 1245.71C1312.04 1242.87 1309.65 1243.83 1313.66 1241.28Z" fill="#304BD7"/>
<path d="M1263.59 1321.17C1263.84 1321.08 1264.67 1322.22 1265.68 1322.12C1266.25 1322.07 1267.12 1320.87 1267.67 1321.02C1271.28 1322.05 1266.28 1324.35 1266.47 1325.88C1266.51 1326.22 1267.79 1329.32 1267.94 1329.45C1268.74 1330.18 1270.23 1328.26 1270.71 1331.5C1270.79 1332.04 1271.67 1333.09 1270.2 1333.48C1269.86 1333.57 1264.91 1331.56 1264.61 1331.17C1263.21 1329.38 1265.34 1324.37 1261.63 1323.81C1262.2 1323.19 1263.25 1321.28 1263.59 1321.16L1263.59 1321.17Z" fill="#304BD7"/>
<path d="M1297.04 1247.59C1298.21 1248 1297.51 1249.12 1297.22 1250.29C1295.73 1256.32 1292.64 1262.61 1287.49 1266.64C1290.77 1260.37 1293.75 1253.9 1297.04 1247.59Z" fill="#304BD7"/>
<path d="M1260.93 1316.97C1261.87 1320.58 1257.35 1323.83 1255.86 1327.1C1254.89 1329.23 1256.99 1332.77 1252.43 1332.61C1255.39 1327.45 1258 1322.14 1260.93 1316.97Z" fill="#304BD7"/>
<path d="M1293.77 1315.61C1293.42 1317.09 1293.03 1318.58 1292.69 1320.05C1291.21 1319.04 1292.37 1317.28 1293.77 1315.61Z" fill="#304BD7"/>
<path d="M1270.52 1337.94L1270.97 1338.28L1269.96 1340.65C1268.52 1340.08 1269.29 1339.54 1270.52 1337.94Z" fill="#304BD7"/>
<path d="M1294.87 1311.18L1294.3 1313.91C1294.47 1313.22 1294.63 1312.2 1294.87 1311.18Z" fill="#83B5EF"/>
<path d="M1264.44 1310.16C1264.38 1310.28 1264.18 1311.25 1263.42 1312.55L1264.44 1310.16Z" fill="#83B5EF"/>
<path d="M1262.44 1313.9C1262.37 1314.02 1262.16 1315.02 1261.42 1316.29L1262.44 1313.9Z" fill="#83B5EF"/>
</g>
<g opacity="0.66" filter="url(#filter2_f_52_1288)">
<path d="M1289.12 178.062C1288.13 177.943 1287.8 177.542 1288.25 176.55C1288.96 175.015 1295.91 172.466 1297.75 172.235C1299.9 166.65 1305.34 172.549 1303.15 176.413L1301.37 177.454L1291.23 178.41L1289.55 177.801L1290.69 177.969C1292.3 180.657 1293.86 183.395 1295.36 186.179L1294.79 187.217L1295.31 186.287L1428.64 172.726L1430.83 174.492L1443.37 197.056L1442.75 198.009C1442.37 198.443 1441.92 198.922 1441.34 199.095C1439.11 199.766 1431.91 200.295 1429.43 200.299L1428.1 199.552C1426.29 199.964 1424.49 200.356 1422.69 200.682C1420.88 201.008 1419.08 201.333 1417.3 201.504C1393.53 203.792 1369.08 206.118 1346.05 208.056C1342.97 208.725 1340.16 208.839 1337.61 208.398L1338.83 208.524C1340.32 211.212 1341.82 213.9 1343.31 216.591L1342.74 217.635L1344.62 216.945C1371.49 214.138 1398.79 211.48 1426 208.992C1428.13 208.796 1430.21 208.943 1432.27 209.121C1436.95 216.438 1441.45 223.867 1445.78 231.406L1496.47 322.388C1497.16 322.609 1497.56 322.83 1497.18 323.793C1498.19 324.458 1497.18 325.346 1496 325.577L1407.15 334.144C1406.73 334.151 1406.36 334.048 1406.01 333.867C1404.53 333.094 1399.08 323.075 1398.57 321.155C1398.41 320.564 1398.55 320.153 1398.81 319.499C1378.03 282.784 1357.99 245.602 1337.27 208.851C1336.74 208.095 1335.69 208.324 1334.78 208.343C1331.13 208.418 1308.33 211.503 1307.39 210.743L1289.12 178.058L1289.12 178.062Z" fill="#5D76FD"/>
<path d="M1578.22 230.782C1577.77 232.421 1576.7 234.113 1575.03 235.856C1552.96 268.526 1530.51 301.291 1507.68 334.152L1504.4 337.824C1503.95 339.288 1502.39 339.989 1499.71 339.931C1459.59 343.567 1419.41 347.416 1379.15 351.479L1377.77 350.946C1377.53 349.897 1379.64 347.413 1380.15 346.235L1398.8 319.506C1400.93 323.274 1403.42 329.226 1405.94 332.396C1406.3 332.854 1406.54 333.29 1407.29 333.267L1496.4 324.67L1497.17 323.802C1496.87 323.658 1496.46 323.343 1496.59 323.145C1512.99 298.682 1531.18 272.475 1547.86 248.689L1518.41 195.529C1516.63 192.274 1515.24 188.796 1513.86 185.328L1512.59 184.419C1504.96 170.59 1497.2 156.735 1489.4 142.966C1488.91 142.104 1488.79 141.061 1488.69 140.048C1488.41 139.828 1488.2 139.56 1487.99 139.294C1487.52 138.702 1486.22 136.546 1486.04 135.998C1486.01 135.921 1486.31 135.702 1486.7 135.442L1541.22 233.322C1545.6 233.988 1576.88 229.467 1578.22 230.78L1578.22 230.782Z" fill="#AAB7FE"/>
<path d="M1365.34 83.5934C1368.27 84.7453 1368.69 92.7819 1372.82 92.8429C1400.93 89.7516 1428.95 87.5983 1457.06 84.5476C1459.78 84.2522 1463.68 84.4918 1466.15 84.0115C1468.05 83.4994 1468.06 83.8396 1467.08 85.4882L1415.81 129.458C1395.47 131.817 1375.41 133.845 1355.64 135.54L1354.3 136.094C1353.56 135.667 1352.81 135.204 1352.37 134.497C1348.77 128.819 1345.59 122.688 1342.67 116.639L1343.24 115.63L1369.47 93.3635L1365.29 85.3233C1364.44 85.65 1363.81 85.6266 1363.38 85.2477C1362.52 83.8673 1363.92 83.5758 1365.34 83.5934Z" fill="#5D76FD"/>
<path d="M1327.55 115.903C1326.78 116.499 1325.98 117.135 1325.17 117.816L1324.43 119.367C1316.61 125.89 1308.91 132.525 1301.32 139.271C1306.51 138.89 1311.76 138.365 1316.98 137.574L1317.59 138.299L1320.55 137.139L1339.15 135.458C1341.2 138.323 1343.07 141.375 1344.75 144.612C1347.1 144.75 1349.5 144.635 1351.94 144.267L1351.67 143.309C1354.25 140.903 1354.95 138.875 1353.78 137.228L1354.3 136.095C1353.97 134.366 1357.61 134.372 1358.84 134.243C1377.71 132.258 1396.56 131.392 1415.5 128.723C1432.39 114.429 1449.03 99.8681 1465.79 85.4326C1466.57 84.7593 1467.58 84.4394 1466.15 84.0139C1470.62 83.1473 1476.86 74.448 1480.62 72.5457C1484.1 70.7862 1494.46 71.6783 1498.69 70.4014L1509.59 90.8147L1508.54 90.9965L1498.02 72.2012C1471.33 95.2982 1444.44 118.314 1417.35 141.244L1414.9 142.755C1413.77 144.143 1412.55 144.987 1411.26 145.286C1361.63 149.879 1312.08 154.713 1262.62 159.785C1264.47 162.045 1265.6 164.752 1266.12 167.712C1264.79 166.95 1260.69 159.652 1261.16 158.833L1319.78 108.877L1319.33 107.321C1319.52 105.328 1322.75 106.233 1323.67 106.836C1324.3 107.246 1327.66 113.804 1328.06 114.932L1327.55 115.915L1327.55 115.903Z" fill="#AAB7FE"/>
<path d="M1414.9 142.75C1415.47 143.176 1415.34 143.726 1414.5 144.398C1418.7 150.673 1422.08 157.351 1424.65 164.431C1384.07 169.685 1343.52 173.72 1303.15 176.417C1301.52 175.385 1303.22 173.764 1302.8 172.935C1302.72 172.772 1300.12 170.639 1299.92 170.622C1298.56 170.522 1298.73 172.817 1298.58 172.91C1298.03 173.23 1297.08 173.048 1296.41 173.319C1294.96 173.901 1290.05 175.778 1289.23 176.532C1288.82 176.907 1289.21 177.601 1289.12 178.066C1286.39 177.704 1274.26 180.081 1272.78 179.159C1271.46 178.34 1267.24 169.762 1266.12 167.707C1264.59 164.926 1263.01 162.156 1261.48 159.375L1263.29 158.56L1411.78 144.356L1414.89 142.753L1414.9 142.75Z" fill="#5D76FD"/>
<path d="M1578.22 230.781L1590.24 252.339L1590.38 253.679L1517.28 361.005L1516.23 361.183L1503.78 338.777L1504.39 337.822C1527.5 305.117 1549.07 271.624 1571.95 238.803C1573.8 236.144 1575.8 232.968 1578.22 230.78L1578.22 230.781Z" fill="#203290"/>
<path d="M1504.4 337.822L1517.29 361.005L1516.59 361.683L1391.1 373.409L1389.75 372.525L1377.78 350.942C1382.12 349.757 1386.97 349.488 1391.39 349.055C1425.4 345.722 1459.46 343.477 1493.51 339.605C1495.7 339.355 1500.89 339.076 1502.6 338.632C1503.26 338.46 1503.84 338.284 1504.4 337.824L1504.4 337.822Z" fill="#5D76FD"/>
<path d="M1303.15 176.416C1343.65 172.39 1384.16 168.346 1424.65 164.43L1425.81 164.443C1427.04 167.18 1428.53 169.736 1430.31 172.114L1430.12 173.226C1431.36 173.058 1432.38 172.274 1433.17 170.872C1435.27 169.578 1437 168.071 1438.37 166.35C1438.29 165.964 1438.44 165.885 1438.8 166.092L1439.89 164.954C1439.53 163.88 1439.89 163.732 1440.75 164.437L1441.84 163.3C1441.77 162.912 1441.92 162.833 1442.27 163.041C1444.63 161.546 1446.82 159.794 1448.85 157.787C1451.63 154.79 1455.34 154.947 1451.92 158.863C1455.19 158.765 1455.91 160.316 1454.1 163.119C1455.38 165.433 1450.74 167.335 1449.07 165.645C1443.21 167.415 1441.7 168.95 1444.55 170.252L1446.14 174.18C1445.6 175.796 1446.32 176.497 1448.3 176.286C1449.07 180.07 1452.34 178.281 1451.59 174.943C1453.12 172.578 1455.16 170.431 1457.68 168.502C1456.13 166.853 1457.61 163.374 1459.93 162.092C1459.62 160.533 1460.5 159.09 1462.56 157.764C1462.29 156.646 1462.48 155.547 1463.52 154.573C1468.86 149.897 1466.85 149.715 1457.47 154.029C1455.05 156.391 1453.75 154.706 1455.66 152.414C1458.22 150.342 1460.49 148.078 1462.47 145.622C1462.46 144.26 1463.01 143.794 1464.42 143.968C1468.15 141.955 1471.95 138.838 1473.99 135.334C1475.43 132.377 1479.43 129.286 1482.67 128.2C1484.86 127.148 1486.94 125.625 1488.9 123.632C1489.73 123.731 1490.43 123.037 1491 121.558L1497.24 115.119C1497.09 113.517 1501.27 110.523 1503 109.975C1502.62 110.1 1502.05 110.279 1501.9 110.073C1501.33 109.28 1497.46 102.622 1497.49 102.139C1497.52 101.751 1497.77 101.4 1498.06 101.098L1498.17 102.103C1474.01 122.945 1449.85 143.784 1425.69 164.626L1424.65 164.428C1420.85 157.789 1417.29 150.991 1413.46 144.369C1413.43 144.278 1414.64 142.981 1414.89 142.747C1440.86 118.681 1470.27 96.5093 1496.3 72.336L1498.51 70.8846L1509.59 90.8089L1498.8 100.394C1498.12 101.597 1503.24 108.464 1503.63 110.241C1498.74 117.504 1493.36 124.644 1488.62 131.971C1488.1 132.771 1486.82 134.705 1486.7 135.441C1486.42 137.155 1488.09 138.514 1488.68 140.046C1487.13 141.951 1485.26 137.293 1485.91 137.28L1485.17 136.837C1483.05 138.583 1480.87 140.497 1478.64 142.579C1479.56 144.145 1479.09 146.075 1477.22 148.369C1478.14 149.232 1477.29 150.132 1475.9 150.127C1474.41 152.382 1472.62 154.248 1470.5 155.723C1467.92 161.668 1464.41 167.49 1459.98 173.19C1460.81 173.409 1460.68 173.754 1459.75 173.811L1458.86 175.31C1459.39 175.965 1459.11 176.333 1458.2 176.189C1457.38 176.91 1456.68 177.539 1456.65 178.568C1457.68 179.378 1455.94 181.467 1454.67 181.205C1452.88 183.303 1451.2 185.486 1449.64 187.754C1445.64 187.203 1444.33 189.087 1445.72 193.403L1445.16 195.116C1446.4 196.508 1443.37 200.295 1442.75 198.011L1429.15 173.555L1294.78 187.221L1289.55 177.803C1294.09 177.004 1298.63 176.862 1303.14 176.414L1303.15 176.416Z" fill="#304BD7"/>
<path d="M1339.08 68.422C1338.63 67.515 1339.31 67.0829 1340.38 66.9244C1342.94 68.5939 1345.96 73.2348 1341.42 75.7174C1338.34 81.7268 1334.29 87.4592 1331.16 93.4554C1331.52 94.8569 1332.14 96.987 1333.64 97.3319L1337.95 104.369C1338.18 106.667 1338.69 106.7 1339.49 104.47C1347.06 97.8114 1355.07 90.7939 1363.39 85.2486C1363.96 85.0381 1365.33 83.7567 1365.67 84.1614C1367.66 86.544 1368.85 90.7671 1370.75 93.371L1343.45 116.54C1346.77 123.208 1351.04 129.404 1354.3 136.097C1354.79 137.108 1355.57 137.742 1355.43 139.081C1355.3 140.208 1352.88 143.266 1351.95 144.269C1351.1 145.216 1349.69 144.224 1349.16 143.458L1326.67 102.967C1325.78 104.532 1325.29 105.148 1323.81 106.077C1324.13 107.335 1321.48 106.572 1320.94 106.174C1320.24 105.661 1318.6 102.355 1319.5 101.419L1318.91 100.719C1325.27 90.0187 1331.62 79.3153 1337.98 68.6074L1339.09 68.4257L1339.08 68.422Z" fill="#304BD7"/>
<path d="M1357.9 40.2391C1357.79 40.977 1357.42 41.2117 1356.72 41.3854L1342.85 64.246C1344.03 66.6522 1346.3 69.8318 1348.66 72.0971L1348.89 73.6491C1347.62 75.2836 1343.47 73.8538 1341.42 75.7142C1342.05 74.4645 1343.22 73.3775 1342.88 72.1694C1342.72 71.5791 1340.87 68.1488 1340.52 67.8243C1340.13 67.4676 1339.36 68.3965 1339.09 68.4207L1338.2 68.9874C1336.94 68.2271 1332.94 67.9512 1332.1 69.8495C1331.74 70.1584 1331.26 70.4939 1330.87 70.3943C1330.57 70.3168 1328.29 66.093 1328.16 65.309L1342.98 40.5513C1343.92 39.7063 1354.46 39.5552 1356.57 38.8587C1357.5 38.8929 1357.51 39.8315 1357.9 40.236L1357.9 40.2391Z" fill="#5D76FD"/>
<path d="M1348.89 73.6524C1345.92 71.1229 1343.54 67.7247 1341.74 64.415L1356.28 40.4453L1357.9 40.2393C1358.92 41.2993 1364.17 47.6168 1364.09 48.5018L1348.89 73.6524Z" fill="#203290"/>
<path d="M1331.16 93.4551L1333.18 97.0792C1334.11 97.2233 1345.92 86.3268 1347.88 84.9806C1351.36 85.0697 1362.85 82.6168 1365.34 83.5935C1364.28 83.8162 1363.86 84.8407 1363.38 85.2478C1354.95 92.4415 1346.61 99.7588 1337.98 106.756C1336.3 102.682 1332.7 98.6317 1331.19 94.5953C1331.05 94.2147 1330.87 93.9027 1331.16 93.4551Z" fill="#AAB7FE"/>
<path d="M1339.08 68.4212L1319.49 101.415L1319.38 102.126C1317.28 102.931 1314.97 103.295 1312.45 103.221C1312.42 103.174 1311.66 103.353 1311.81 102.665C1311.9 102.263 1312.96 100.509 1313.3 99.9042C1318.52 90.6372 1324.46 81.5628 1329.77 72.3243C1331.66 69.6046 1327.51 67.4218 1328.16 65.3113L1330.79 69.5381C1331.64 69.9783 1331.49 68.3221 1333.04 67.8827C1333.65 67.7118 1336.81 67.5809 1337.54 67.6309C1338.46 67.6966 1338.99 68.4284 1339.08 68.4212Z" fill="#AAB7FE"/>
<path d="M1319.49 101.415C1320.83 102.791 1321.1 107.073 1323.81 106.073C1325.09 104.469 1325.81 104.024 1326.47 105.895C1326.92 108.667 1328.11 111.089 1330.04 113.154C1330.78 114.79 1329.14 117.623 1327.55 115.904C1325.77 113.807 1324.49 108.795 1322.57 107.15C1321.62 106.331 1320.31 107.172 1319.33 107.312C1318.72 107.4 1317.97 107.798 1317.48 107.784C1315.28 107.726 1313.59 104.799 1312.45 103.221C1314.02 101.117 1317.56 102.817 1319.49 101.415Z" fill="#5D76FD"/>
<path d="M1513.86 185.327C1525.58 206.306 1537.38 227.269 1548.7 248.484L1497.18 323.801L1495.62 323.066C1474.57 285.05 1453.29 247.153 1432.27 209.129L1432.48 208.186L1510.96 185.91C1512.23 184.945 1513.2 184.752 1513.86 185.325L1513.86 185.327Z" fill="#304BD7"/>
<path d="M1485.18 136.839C1485.4 136.818 1485.81 136.151 1486.18 136.523C1486.8 137.132 1487.15 138.617 1487.75 139.442C1488.06 139.866 1488.66 140.003 1488.69 140.05C1497.79 153.637 1505.75 170.805 1513.87 185.328L1511.17 186.725L1432.27 209.131C1430.34 208.779 1425.84 200.523 1426.62 199.939L1428.09 199.558C1432.71 199.086 1438.26 198.738 1442.75 198.014C1442.99 197.977 1443.09 198.409 1443.74 197.73C1444.41 196.93 1444.58 195.938 1445.17 195.119C1447.36 190.234 1450.53 185.598 1454.67 181.208C1455.31 180.241 1456.14 179.376 1456.66 178.571C1456.63 177.605 1457.38 176.851 1458.21 176.193C1458.4 175.89 1458.67 175.616 1458.87 175.313L1459.76 173.814C1459.87 173.642 1459.87 173.375 1459.99 173.193L1468.39 160.637C1470.23 156.826 1472.73 153.323 1475.9 150.13C1476.38 149.621 1476.76 148.926 1477.22 148.372C1479.18 144.006 1481.84 140.163 1485.18 136.84L1485.18 136.839Z" fill="#203290"/>
<path d="M1428.09 199.557C1426.68 200.135 1427.56 200.609 1427.92 201.325C1429.26 203.977 1430.83 206.536 1432.26 209.129C1413.26 211.489 1394.32 212.91 1375.37 214.657C1364.5 215.658 1353.53 217.114 1342.74 217.641L1337.6 208.404C1344.53 206.98 1351.48 206.846 1358.39 206.168C1381.56 203.891 1404.87 201.934 1428.09 199.557Z" fill="#304BD7"/>
<path d="M1351.94 144.265C1351.87 144.347 1351.93 144.741 1351.52 144.992C1350.75 145.453 1344.88 145.825 1344.28 145.482C1342.44 144.418 1340.09 136.84 1338.79 136.287L1317.59 138.297L1317.72 137.292C1319.77 135.906 1331.32 126.391 1331.4 125.321C1331.44 124.851 1327.65 117.803 1327.29 117.533C1326.44 118.198 1325.73 118.292 1325.17 117.818C1325.3 116.922 1326.75 116.415 1327.55 115.905C1327.74 115.788 1328.44 116.027 1328.95 115.337C1330.28 113.505 1327.46 111.722 1326.73 110.368C1325.92 108.878 1326.02 106.767 1325.1 105.301C1324.66 105.49 1324.22 105.925 1323.81 106.076L1326.71 100.959L1350.16 143.191L1351.95 144.269L1351.94 144.265Z" fill="#5D76FD"/>
<path d="M1325.17 117.818C1325.98 117.246 1326.93 116.817 1327.75 116.265L1332.61 125.459C1332.47 126.221 1321.31 135.714 1319.78 136.86C1319.09 137.386 1318.38 137.93 1317.59 138.3C1316.65 138.737 1302.19 140.237 1300.63 140.173C1299.97 140.147 1299.53 140.35 1299.34 139.583C1300.74 138.661 1302.23 137.572 1303.49 136.479C1310.07 130.771 1318.22 122.693 1325.17 117.818Z" fill="#304BD7"/>
<path d="M1424.65 164.431L1498.07 101.101L1503 109.976C1503.34 110.588 1498.17 114.313 1497.24 115.12C1492.94 120.289 1488.08 124.648 1482.67 128.2C1479.88 130.628 1476.8 132.897 1474 135.334C1471.8 138.911 1468.28 141.949 1464.43 143.967C1463.79 144.522 1463.12 145.062 1462.47 145.622C1456.37 152.03 1449.64 157.838 1442.27 163.044C1442.14 163.138 1441.97 163.202 1441.84 163.302L1440.75 164.44C1440.49 164.638 1440.15 164.761 1439.89 164.956L1438.8 166.094C1438.67 166.196 1438.49 166.248 1438.37 166.352C1436.03 168.563 1433.69 170.769 1431.32 172.972L1430.12 173.228C1428.32 172.165 1425.88 166.572 1424.65 164.431Z" fill="#203290"/>
<path d="M1462.47 145.623C1461.81 149.164 1456.39 151.251 1455.43 154.669C1456.09 154.306 1456.42 153.631 1457.1 153.29C1458.08 152.808 1465.65 149.667 1466.11 149.666C1466.79 149.665 1467.49 151.298 1467.4 151.865C1467.26 152.824 1464.18 154.684 1463.58 155.844C1463.14 156.681 1463.67 157.482 1463.45 157.963C1463.15 158.595 1461.2 159.809 1460.82 160.58C1460.53 161.169 1461.16 161.792 1460.86 162.3C1460.5 162.913 1459.39 163.236 1458.89 163.96C1458.8 164.089 1457.84 166.626 1457.83 166.77C1457.75 167.441 1459.1 167.663 1458.47 168.821C1457.81 170.053 1453.51 172.7 1452.59 174.693C1452.16 175.616 1453.55 177.076 1451.21 178.815C1450.9 179.044 1448.71 179.519 1448.6 179.472C1447.89 179.174 1448.22 177.484 1447.68 177.014C1447.18 176.571 1445.83 177.232 1445.36 176.827C1444.77 176.319 1445.44 175.215 1445.21 174.524C1445 173.884 1443.94 171.359 1443.63 170.646C1443.24 169.768 1441.86 169.623 1441.85 169.079C1441.84 167 1447.49 165.894 1448.93 164.334C1451.39 166.137 1450.91 165.638 1453.88 164.29C1451.84 163.054 1454.88 161.879 1453.94 160.145C1453.47 159.283 1451.24 160.627 1450.98 159.05C1450.85 158.247 1452.92 157.301 1452.32 156.295C1449.37 157.308 1446.67 160.767 1444.4 162.271C1443.59 162.808 1442.44 162.924 1442.27 163.039C1448.66 156.902 1455.75 151.424 1462.47 145.617L1462.47 145.623Z" fill="#304BD7"/>
<path d="M1497.24 115.122C1496.13 117.849 1491.98 119.984 1491.13 123.087C1490.9 123.924 1491.7 124.438 1491.59 125.551C1491.4 127.491 1488.77 129.026 1487.07 129.911C1484.14 128.525 1491.93 125.156 1489.77 124.435C1487.9 123.812 1485.07 129.555 1482.67 128.202C1487.57 123.942 1492.32 119.391 1497.24 115.122Z" fill="#304BD7"/>
<path d="M1454.67 181.211C1451.59 185.94 1448.48 190.49 1445.17 195.121C1444.73 193.133 1443.54 189.692 1445.24 187.7C1446.35 186.398 1448.68 187.478 1449.56 187.005C1450.57 186.467 1452.79 181.867 1454.67 181.211Z" fill="#304BD7"/>
<path d="M1475.9 150.132L1459.99 173.195C1462.44 169.271 1465.99 164.326 1468.2 160.552C1468.88 159.379 1469.57 155.636 1469.74 155.378C1470.16 154.749 1472.19 153.936 1473.13 153.133C1473.69 152.663 1475.16 150.917 1475.9 150.132Z" fill="#304BD7"/>
<path d="M1485.18 136.841C1482.83 140.845 1480.27 144.721 1477.22 148.372C1477.11 147.31 1478.27 146.458 1478.35 145.43C1478.61 142.377 1475.84 143.764 1479.94 140.093C1480.66 139.444 1481.61 139.099 1482.35 138.519C1483.89 137.299 1482.27 137.111 1485.18 136.841Z" fill="#304BD7"/>
<path d="M1439.1 169.807C1439.27 169.835 1439.53 170.809 1440.15 171.076C1440.5 171.227 1441.26 170.77 1441.56 171.046C1443.5 172.852 1440.05 172.643 1439.85 173.651C1439.81 173.869 1439.94 176.2 1440 176.327C1440.33 177.038 1441.61 176.334 1441.24 178.493C1441.18 178.851 1441.49 179.783 1440.53 179.544C1440.31 179.486 1437.77 176.645 1437.67 176.304C1437.2 174.747 1439.49 172.352 1437.39 170.796C1437.86 170.601 1438.87 169.767 1439.1 169.804L1439.1 169.807Z" fill="#304BD7"/>
<path d="M1474 135.335C1474.61 135.966 1473.97 136.426 1473.55 137.055C1471.44 140.287 1468.32 143.157 1464.43 143.969C1467.66 141.173 1470.75 138.154 1474 135.335Z" fill="#304BD7"/>
<path d="M1438.37 166.355C1438.19 168.887 1434.84 169.419 1433.28 170.951C1432.27 171.946 1432.8 174.811 1430.12 173.23C1432.93 171.016 1435.57 168.59 1438.37 166.355Z" fill="#304BD7"/>
<path d="M1458.21 176.192C1457.7 176.989 1457.16 177.78 1456.66 178.571C1455.98 177.473 1457.03 176.765 1458.21 176.192Z" fill="#304BD7"/>
<path d="M1439.81 182.395L1440.01 182.75L1438.93 183.887C1438.18 183.064 1438.75 182.983 1439.81 182.395Z" fill="#304BD7"/>
<path d="M1459.76 173.813L1458.87 175.313C1459.1 174.945 1459.41 174.365 1459.76 173.813Z" fill="#83B5EF"/>
<path d="M1441.84 163.301C1441.78 163.348 1441.47 163.889 1440.75 164.438L1441.84 163.301Z" fill="#83B5EF"/>
<path d="M1439.89 164.956C1439.82 165.003 1439.49 165.551 1438.8 166.093L1439.89 164.956Z" fill="#83B5EF"/>
</g>
</g>
<defs>
<filter id="filter0_f_52_1288" x="107.965" y="130.029" width="221.966" height="244.773" filterUnits="userSpaceOnUse" color-interpolation-filters="sRGB">
<feFlood flood-opacity="0" result="BackgroundImageFix"/>
<feBlend mode="normal" in="SourceGraphic" in2="BackgroundImageFix" result="shape"/>
<feGaussianBlur stdDeviation="10.2" result="effect1_foregroundBlur_52_1288"/>
</filter>
<filter id="filter1_f_52_1288" x="999.614" y="1134.09" width="524.286" height="508.714" filterUnits="userSpaceOnUse" color-interpolation-filters="sRGB">
<feFlood flood-opacity="0" result="BackgroundImageFix"/>
<feBlend mode="normal" in="SourceGraphic" in2="BackgroundImageFix" result="shape"/>
<feGaussianBlur stdDeviation="2.85" result="effect1_foregroundBlur_52_1288"/>
</filter>
<filter id="filter2_f_52_1288" x="1252.02" y="29.7588" width="347.461" height="352.75" filterUnits="userSpaceOnUse" color-interpolation-filters="sRGB">
<feFlood flood-opacity="0" result="BackgroundImageFix"/>
<feBlend mode="normal" in="SourceGraphic" in2="BackgroundImageFix" result="shape"/>
<feGaussianBlur stdDeviation="4.55" result="effect1_foregroundBlur_52_1288"/>
</filter>
<clipPath id="clip0_52_1288">
<rect width="1513" height="1626" fill="white"/>
</clipPath>
</defs>
</svg>
