<svg width="1076" height="689" viewBox="0 0 1076 689" fill="none" xmlns="http://www.w3.org/2000/svg">
<path d="M328.426 177.105C309.168 179.722 303.801 172.855 302.551 168.288L311.98 121.502C330.107 125.119 323.346 143.341 340.618 142.797C359.561 142.201 365.217 141.185 368.677 145.683C362.047 145.892 356.365 156.541 359.339 165.242C366.022 184.8 359.002 189.684 354.46 190.944C354.613 185.774 347.684 174.488 328.426 177.105Z" fill="#E7063D"/>
<path d="M215.717 601.982L195.354 602.623L308.941 115.316L313.203 115.182L215.717 601.982Z" fill="#662532"/>
<ellipse cx="601.169" cy="344.009" rx="573.269" ry="175.165" transform="rotate(-17.3663 601.169 344.009)" fill="url(#paint0_linear_243_8604)"/>
<path d="M785.162 67.4732L735.005 99.792L731.018 520.204L822.957 520.686L785.162 67.4732Z" fill="#C1475F"/>
<path d="M785.161 67.4727L825.88 559.084L996.816 559.979L907.88 156.487L785.161 67.4727Z" fill="#812F40"/>
<path d="M215.234 319.784L143.247 600.143L1056.31 621.437L1037.14 530.734C755.267 561.036 468.368 306.233 360.153 175.043L215.234 319.784Z" fill="#ED93A5"/>
<path d="M286.94 604.467L144.138 600.595L216.59 316.668L360.595 175.939L286.94 604.467Z" fill="#C1475F"/>
<path d="M268.646 604.37L258.381 604.317L338.924 224.028L268.646 604.37Z" fill="#840323"/>
<path d="M246.274 614.072L236.009 614.019L315.639 237.742L246.274 614.072Z" fill="#840323"/>
<path d="M222.156 617.512L211.891 617.458L291.879 258.143L222.156 617.512Z" fill="#840323"/>
<path d="M196.269 617.376L186.004 617.322L265.423 281.213L196.269 617.376Z" fill="#840323"/>
<path d="M168.599 617.232L158.334 617.178L238.494 310.083L168.599 617.232Z" fill="#840323"/>
<path d="M663.575 616.709L438.664 610.175L451.915 551.33L658.873 576.962L663.575 616.709Z" fill="#840323"/>
<path d="M857.265 617.267L744.807 614.447L744.961 584.991L857.379 595.398L857.265 617.267Z" fill="#840323"/>
<path d="M357.81 197.348L360.152 176.383C541.73 361.007 787.069 557.544 1037.15 529.842L1038.89 538.332C855.373 554.331 656.698 480.987 357.81 197.348Z" fill="#F3B5C2"/>
<line x1="788.241" y1="107.625" x2="915.978" y2="190.074" stroke="white" stroke-width="0.892627"/>
<line x1="790.434" y1="128.715" x2="919.438" y2="210.621" stroke="white" stroke-width="0.892627"/>
<line x1="792.064" y1="155.493" x2="925.555" y2="232.959" stroke="white" stroke-width="0.892627"/>
<line x1="795.491" y1="180.499" x2="932.571" y2="254.413" stroke="white" stroke-width="0.892627"/>
<line x1="798.029" y1="205.501" x2="934.239" y2="274.947" stroke="white" stroke-width="0.892627"/>
<line x1="799.681" y1="229.607" x2="939.471" y2="297.286" stroke="white" stroke-width="0.892627"/>
<line x1="801.314" y1="255.495" x2="943.81" y2="317.833" stroke="white" stroke-width="0.892627"/>
<line x1="803.859" y1="279.607" x2="949.042" y2="340.174" stroke="white" stroke-width="0.892627"/>
<line x1="806.414" y1="302.828" x2="953.382" y2="363.404" stroke="white" stroke-width="0.892627"/>
<line x1="806.283" y1="325.138" x2="960.407" y2="383.074" stroke="white" stroke-width="0.892627"/>
<line x1="810.603" y1="351.044" x2="963.852" y2="405.405" stroke="white" stroke-width="0.892627"/>
<line x1="810.476" y1="374.251" x2="968.193" y2="427.742" stroke="white" stroke-width="0.892627"/>
<line x1="813.896" y1="400.15" x2="974.319" y2="448.3" stroke="white" stroke-width="0.892627"/>
<line x1="816.451" y1="423.372" x2="977.767" y2="471.527" stroke="white" stroke-width="0.892627"/>
<line x1="816.321" y1="446.577" x2="982.113" y2="492.077" stroke="white" stroke-width="0.892627"/>
<line x1="818.873" y1="470.692" x2="986.447" y2="517.094" stroke="white" stroke-width="0.892627"/>
<path d="M238.001 145.274C216.969 147.677 211.267 140.249 210.002 135.356L221.26 85.6765C240.929 89.8959 233.18 109.183 252.006 108.95C272.652 108.694 278.835 107.725 282.509 112.588C275.282 112.678 268.868 123.915 271.924 133.25C278.791 154.23 271.042 159.295 266.067 160.547C266.343 155.039 259.034 142.871 238.001 145.274Z" fill="#E7063D"/>
<path d="M106.267 595.887L84.0723 596.162L218.08 79.0214L222.725 78.9638L106.267 595.887Z" fill="#662532"/>
<path d="M412.631 207.79C398.026 210.102 395.506 205.748 394.534 201.534L401.001 161.305C414.779 164.729 409.74 181.477 422.848 181.064C437.224 180.611 436.976 178.993 439.625 183.153C434.594 183.311 428.9 189.973 431.706 197.817C434.588 205.873 433.746 210.775 431.657 216.56C429.182 211.185 427.236 205.478 412.631 207.79Z" fill="#E7063D"/>
<path d="M330.382 603.334L314.928 603.821L398.662 155.592L401.897 155.49L330.382 603.334Z" fill="#662532"/>
<path d="M472.024 230.327C459.22 232.503 456.999 228.328 456.135 224.293L461.706 185.804C473.8 189.116 469.422 205.133 480.919 204.771C493.527 204.374 493.305 202.824 495.639 206.813C491.226 206.952 486.249 213.314 488.73 220.828C491.278 228.547 490.552 233.237 488.734 238.768C486.55 233.617 484.829 228.151 472.024 230.327Z" fill="#E7063D"/>
<path d="M400.881 608.712L387.327 609.139L459.64 180.33L462.477 180.24L400.881 608.712Z" fill="#662532"/>
<path d="M532.405 253.305C521.701 255.325 519.828 251.355 519.092 247.523L523.615 211.016C533.744 214.202 530.139 229.387 539.755 229.084C550.301 228.752 555.03 227.306 556.997 231.1C553.306 231.216 551.825 240.565 553.927 247.705C556.087 255.039 552.966 260.831 549.074 264.705C547.229 259.809 543.109 251.285 532.405 253.305Z" fill="#E7063D"/>
<path d="M474.231 612.145L462.894 612.503L521.868 205.813L524.241 205.739L474.231 612.145Z" fill="#662532"/>
<path d="M591.329 277.176C581.459 279.423 579.581 275.811 578.763 272.287L581.689 238.307C591.207 240.902 588.389 255.097 597.309 254.478C607.092 253.8 610.84 252.464 612.799 255.909C609.375 256.147 608.967 263.822 611.169 270.363C613.43 277.081 610.433 281.663 607.849 286.112C605.964 281.641 601.2 274.928 591.329 277.176Z" fill="#E7063D"/>
<path d="M549.837 611.662L539.321 612.392L579.884 233.548L582.085 233.396L549.837 611.662Z" fill="#662532"/>
<path d="M653.315 299.169C642.162 302.208 639.832 298.845 638.716 295.476L640.305 262.07C651.305 263.787 648.82 277.878 658.972 276.51C670.106 275.008 669.774 273.704 672.189 276.898C668.292 277.423 664.437 283.319 667.287 289.512C670.215 295.873 669.98 299.948 668.85 304.843C666.468 300.642 664.468 296.129 653.315 299.169Z" fill="#E7063D"/>
<path d="M623.191 629.091L611.222 630.704L637.999 257.582L640.504 257.245L623.191 629.091Z" fill="#662532"/>
<path d="M717.185 322.251C705.335 325.982 702.728 323.074 701.422 320.06L702.03 289.12C713.873 289.787 711.671 302.99 722.504 300.883C734.384 298.572 733.986 297.397 736.678 300.141C732.52 300.95 728.582 306.708 731.839 312.182C735.185 317.805 735.065 321.583 734.016 326.191C731.326 322.515 729.035 318.519 717.185 322.251Z" fill="#E7063D"/>
<path d="M695.713 629.023L682.942 631.507L699.413 285.173L702.086 284.653L695.713 629.023Z" fill="#662532"/>
<path d="M775.311 340.718C763.026 345.406 760.161 342.969 758.659 340.299L757.952 311.454C770.42 310.859 768.682 323.367 779.968 320.295C792.346 316.925 791.877 315.873 794.824 318.149C790.492 319.329 786.606 325.089 790.265 329.847C794.024 334.735 794.063 338.261 793.161 342.656C790.176 339.512 787.595 336.031 775.311 340.718Z" fill="#E7063D"/>
<path d="M766.097 628.302L752.791 631.924L755.031 308.051L757.816 307.293L766.097 628.302Z" fill="#662532"/>
<path d="M834.744 365.178C823.473 370.141 820.691 368.051 819.172 365.674L817.254 339.177C828.874 337.969 827.796 349.568 838.204 346.144C849.619 342.389 849.136 341.446 851.987 343.384C847.992 344.699 844.613 350.203 848.239 354.387C851.962 358.684 852.153 361.926 851.501 366.016C848.576 363.283 846.014 360.216 834.744 365.178Z" fill="#E7063D"/>
<path d="M838.67 630.218L826.399 634.255L814.378 336.201L816.946 335.356L838.67 630.218Z" fill="#662532"/>
<path d="M898.712 394.148C888.658 398.89 886.247 388.25 884.815 386.121L882.421 362.079C892.884 360.743 887.935 369.507 897.249 366.182C907.463 362.535 913.057 366.509 916.254 372.1C910.047 371.278 907.783 380.063 911.162 383.79C914.632 387.619 913.775 396.019 913.289 399.75C910.579 397.325 908.766 389.407 898.712 394.148Z" fill="#E7063D"/>
<path d="M909.043 626.141L898.062 630.061L879.749 359.434L882.047 358.613L909.043 626.141Z" fill="#662532"/>
<path d="M960.283 417.16C951.203 422.541 948.662 416.05 947.188 414.356L943.395 393.554C953.079 391.111 953.124 400.461 961.606 396.412C970.907 391.972 970.443 395.283 973.003 396.458C969.747 398.012 966.515 402.864 969.911 405.724C973.399 408.661 974.7 417.853 974.488 421.185C971.801 419.387 969.364 411.779 960.283 417.16Z" fill="#E7063D"/>
<path d="M985.348 621.999L975.349 626.772L940.729 391.557L942.822 390.558L985.348 621.999Z" fill="#662532"/>
<path d="M1021.12 436.449C1014.62 440.804 1009.32 433.449 1007.96 431.748L1002.47 411.944C1009.8 410.391 1009.21 423.056 1015.4 419.905C1022.19 416.45 1027.08 418.68 1029.24 419.978C1026.86 421.187 1026.18 424.177 1029.2 427.119C1032.3 430.14 1033.8 437.87 1034.04 440.98C1031.71 439.088 1027.62 432.094 1021.12 436.449Z" fill="#E7063D"/>
<path d="M1063 629.44L1055.7 633.155L1000.13 409.868L1001.66 409.09L1063 629.44Z" fill="#662532"/>
<path d="M49.0673 601.853L42.2652 622.348L58.2692 634.483L1102.65 635.488L1110.73 627.497L1100.5 620.748L82.5801 594.441L49.0673 601.853Z" fill="#68031B"/>
<defs>
<linearGradient id="paint0_linear_243_8604" x1="27.8997" y1="344.009" x2="1174.44" y2="344.009" gradientUnits="userSpaceOnUse">
<stop stop-color="#E35370"/>
<stop offset="1" stop-color="#ED93A5"/>
</linearGradient>
</defs>
</svg>
